<svg version="1.1" id="Layer_1" xmlns="http://www.w3.org/2000/svg" x="0" y="0" viewBox="0 0 636.6 491.3" style="enable-background:new 0 0 636.6 491.3" xml:space="preserve"><style>.st0{fill:#c5c3c3}.st1{fill:#bcb8b8}.st2{fill:#3d3e3e}.st3{fill:#c8c6c6}.st4{fill:#cc5c25}.st5{fill:#ec6a2b}.st7{fill:#d8d7d7}.st8{fill:#fb8d58}.st9{fill:#bab2b2}.st11{fill:#a2a2a2}.st12{fill:#1e262e}.st13{fill:#f3e2cc}.st14{fill:#414242}.st15{fill:#fff}.st16{fill:#f1f1f1}.st17{fill:#a3a3a3}.st18{fill:#847d7d}.st27{fill:#c4c4c4}</style><path id="Path_171" class="st0" d="M149.9 421.2c-9.7-5.6-9.7-14.7 0-20.2.6-.3 1.1-.6 1.7-.9l5.2 11s0 .1.1.1l.3.7c.8 1.4 2.5 2.7 5.4 3.5 3.2.8 6.6.7 9.7-.4 3.9-1.5 5.4-4.1 4.4-6.4l-5.5-11.5v-.1c4.8.4 9.4 1.7 13.6 4 5 2.9 7.4 6.7 7.2 10.5-.2 4.9 3 9.7 9 13.2l77.4 44.7c3.5 2 3.5 5.3 0 7.3-4 2-8.7 2-12.7 0l-80.1-46.2c-5.4-3.1-12.7-4.8-20.4-5.2-5.2-.1-10.6-1.6-15.3-4.1"/><path id="Path_172" class="st1" d="M151 407.9c0 .2-.1-9.5-.1-9.5l4.5.5.1.1c.7-.6 1.5-1.1 2.3-1.6.5-.3 1.1-.6 1.6-.9l4.5 9.6c1.8 1.6 3.8 3.2 5.7 4.8 3.1.8 6.4.7 9.4-.3 3.8-1.4 5.1-3.9 4.2-6.1l-5.2-11V385s0-.1.1-.1l6.4 3.6 3.4 7.2c1.1.4 2.1.9 3.2 1.5 4.6 2.7 6.9 6.2 6.9 9.7l44.5 33.7 29.5 17 10.7-.4v8.6c0 1.3-.8 2.5-2.5 3.5-3.8 1.9-8.3 1.9-12.1 0l-76.1-44c-5.2-3-12.1-4.6-19.4-4.9-5.2-.1-10.2-1.5-14.8-3.9-4.2-2.4-6.4-5.5-6.8-8.6z"/><path id="Path_173" class="st2" d="M274.2 471.8c2.2 0 4.5-.5 6.4-1.6 1.9-1.1 2.9-2.5 2.9-4.1v-9.4l-11.3.4-29.3-16.9-44.1-33.4c-.1-3.8-2.7-7.3-7.2-9.9l-3-1.5-3.4-7.2-7-4-.8.4v9.2l5.3 11.2c.3.7.3 1.4 0 2.1-.8 1.4-2.2 2.5-3.8 2.9-2.8 1-5.9 1.1-8.8.3-1.8-1.5-3.7-3.1-5.5-4.6l-4.8-10.2-.7.3c-.6.3-1.2.6-1.7.9-.7.4-1.4.9-2 1.4l-5.3-.6v.9c0 2.9.1 7.1.1 8.7l.1 1.4c.6 3.4 3.1 6.5 7.1 8.8 4.7 2.5 9.8 3.9 15.1 4 7.5.3 14.2 2 19 4.8l76.1 44c2.1 1.2 4.3 1.7 6.6 1.7m7.7-13.6v7.8c0 1-.8 2-2.1 2.8-3.6 1.8-7.8 1.8-11.3 0l-76.1-44c-5.1-2.9-11.9-4.7-19.7-5-5-.1-10-1.4-14.4-3.8-3.8-2.2-6.1-5.1-6.5-8.1l-.1-.4c.1-1.1.1-3.5 0-8.3l3.4.4.3.3.6-.3c.7-.5 1.4-1 2.2-1.5.3-.2.6-.3.9-.5l4.4 9.2c1.8 1.6 3.8 3.2 5.7 4.8l.3.2c3.3.9 6.7.8 9.9-.3 2.3-.9 3.9-2.2 4.6-3.8.3-.8.4-1.6.3-2.4h.1l-.4-.9-5.2-10.9v-7.2l5.1 2.9 3.4 7.3.3.1c1.1.4 2.1.9 3.1 1.5 4.2 2.4 6.5 5.6 6.5 9v.4l.3.2 44.5 33.7 29.8 17.2 10.1-.4z"/><path id="Path_174" class="st3" d="M157.8 408.1c-9.2-5.3-9.2-13.9 0-19.3.5-.3 1.1-.6 1.6-.9l4.9 10.5s0 .1.1.1l.3.6c.8 1.3 2.4 2.6 5.1 3.3 3.1.8 6.3.7 9.3-.3 3.8-1.4 5.1-3.9 4.2-6.1l-5.2-11v-.1c4.5.3 8.9 1.6 12.9 3.8 4.8 2.8 7.1 6.4 6.9 10-.2 4.7 2.8 9.3 8.6 12.6l73.6 42.5c3.3 1.9 3.3 5.1 0 7-3.8 1.9-8.3 1.9-12.1 0L192 417c-5.2-3-12.1-4.6-19.4-4.9-5.2-.2-10.2-1.5-14.8-4"/><path id="Path_175" class="st2" d="M274.2 463.1c2.2 0 4.4-.5 6.4-1.5 1.9-1.1 2.9-2.5 2.9-4.1s-1-3.1-2.9-4.1L207 410.8c-5.4-3.1-8.4-7.5-8.2-11.9.2-4-2.4-7.9-7.3-10.7-4.1-2.2-8.6-3.6-13.2-3.9h-.4l-.6.8.2.5 5.2 10.9c.3.7.3 1.4 0 2.1-.8 1.4-2.2 2.5-3.8 2.9-2.8 1-5.9 1.1-8.8.3-2.3-.6-3.9-1.6-4.7-2.9l-.3-.6-5.3-11.3-.7.3c-.6.3-1.2.6-1.7.9-4.7 2.7-7.3 6.4-7.3 10.3s2.6 7.6 7.3 10.3c4.7 2.5 9.8 3.9 15.1 4 7.5.3 14.2 2 19 4.8l76.1 44c2.1 1.1 4.3 1.6 6.6 1.5M179.4 386c4 .4 7.9 1.6 11.4 3.6 4.4 2.5 6.7 5.8 6.5 9.3-.2 5 3 9.8 9 13.3l73.6 42.5c1.4.8 2.1 1.8 2.1 2.8s-.8 2-2.1 2.8c-3.6 1.8-7.8 1.8-11.3 0l-76.1-44c-5.1-2.9-11.9-4.7-19.7-5-5-.1-10-1.4-14.4-3.8-4.2-2.4-6.5-5.6-6.5-9s2.3-6.5 6.5-9c.3-.2.6-.3.9-.5l5.2 11.1h.1c1.3 1.6 3.2 2.8 5.3 3.2 3.2.8 6.6.7 9.7-.4 2.3-.9 3.9-2.2 4.6-3.8.5-1 .5-2.2 0-3.3l-4.8-9.8z"/><path id="Path_176" class="st4" d="M196.3 415.2c1.5.8 3.2.8 4.7 0 1.3-.8 1.3-2 0-2.7-1.5-.8-3.2-.8-4.7 0-1.3.7-1.3 1.9 0 2.7"/><path id="Path_177" class="st2" d="M198.6 416.5c1 0 1.9-.2 2.7-.7 1.1-.5 1.7-1.7 1.2-2.8-.2-.5-.7-1-1.2-1.2-1.7-.9-3.8-.9-5.5 0-1.1.5-1.7 1.7-1.2 2.8.2.5.7 1 1.2 1.2 1 .5 1.9.7 2.8.7m0-3.8c.7 0 1.4.1 2 .5.4.2.6.5.6.7 0 .2-.2.5-.6.7-1.2.6-2.7.6-4 0-.4-.2-.6-.5-.6-.7 0-.2.2-.5.6-.7.7-.4 1.4-.6 2-.5"/><path id="Path_178" class="st5" d="m205 417.6.3-.2c1.5-.7 3.2-.6 4.6.2l58.1 33.5c1.4.8 1.5 2 .3 2.7l-.3.2c-1.5.7-3.2.6-4.6-.2l-58.1-33.5c-1.3-.8-1.5-2-.3-2.7"/><path id="Path_179" class="st2" d="M266 455.2c.8 0 1.7-.2 2.4-.6l.3-.2c.7-.3 1.2-1 1.2-1.8-.1-.9-.7-1.8-1.5-2.2L210.3 417c-1.7-.9-3.7-1-5.4-.2l-.3.2c-.7.3-1.2 1-1.2 1.8.1.9.7 1.8 1.5 2.2l58.1 33.5c1 .5 2 .8 3 .7m-58.7-37.5c.8 0 1.6.2 2.2.6l58.1 33.5c.6.3.8.7.8.9 0 .2-.3.4-.4.5l-.3.2c-1.2.5-2.7.5-3.9-.2l-58.1-33.5c-.6-.3-.8-.7-.8-.9 0-.2.3-.4.4-.5l.3-.2c.6-.2 1.2-.4 1.7-.4"/><path id="Rectangle_54" class="st2" d="M271.4 462.3h1.5v8.8h-1.5z"/><path id="Rectangle_55" class="st2" d="M183.5 413.8h1.5v8.8h-1.5z"/><path id="Rectangle_56" class="st2" d="M153.3 405.1h1.5v8.8h-1.5z"/><path id="Path_180" d="m633.7 408.6-124 71.8c-.5.2-1 .2-1.5-.1l-15.3-8.8c-.4-.3-.5-.6-.1-.9l124-71.8c.5-.2 1-.2 1.5.1l15.3 8.8c.4.3.5.7.1.9" style="fill:#ddd"/><path id="Path_181" class="st7" d="m635.7 400.7-119.8 69.2c-.4.2-1 .2-1.4-.1l-14.2-8.2c-.4-.2-.5-.6-.1-.8L620 391.6c.4-.2 1-.2 1.4.1l14.2 8.2c.4.2.4.6.1.8"/><path id="Path_182" class="st1" d="m515.9 469.5 117.3-67.8-11.8-6.8c-.4-.2-.9-.3-1.4-.1l-117.3 67.8 11.8 6.8c.4.3.9.3 1.4.1"/><path id="Path_183" class="st4" d="m616.9 411.2 16-9.3-11.8-6.8c-.4-.2-.9-.3-1.4-.1l-15.2 8.8 12.4 7.4z"/><path id="Path_184" class="st8" d="m624.2 407 9-5.2-11.8-6.8c-.4-.2-.9-.3-1.4-.1l-8.3 4.8 12.5 7.3z"/><path id="Path_185" class="st4" d="m534.4 448.1-3.2-1.9-25.5 14.8 11.8 6.8c.4.2.9.3 1.4.1l25-14.5c-5.4-3.1-9.3-5.3-9.5-5.3"/><path id="Path_186" class="st2" d="M516.2 470.5 636 401.3c.4-.2.6-.6.6-1 0-.5-.3-.9-.7-1.1l-14.2-8.2c-.7-.4-1.5-.4-2.1-.1l-119.8 69.2c-.4.2-.6.6-.6 1 0 .5.3.9.7 1.1l14.2 8.2c.4.2.8.3 1.2.3.3 0 .6-.1.9-.2m104.2-78.2c.2-.1.4 0 .6.1l13.8 8-119.3 68.9c-.2.1-.4 0-.6-.1l-13.8-8 119.3-68.9z"/><path id="Path_187" class="st8" d="m531.8 449.5-3.2-1.9-25.6 14.8 11.8 6.8c.4.2.9.3 1.4.1l25-14.5c-5.4-3.1-9.3-5.3-9.4-5.3"/><path id="Rectangle_57" transform="rotate(-60 514.654 464.43)" class="st2" d="M514.1 458.3h1.1v12.2h-1.1z"/><path id="Rectangle_58" transform="rotate(-60 530.065 457.12)" class="st2" d="M529.5 452.6h1.1v9h-1.1z"/><path id="Rectangle_59" transform="rotate(-60.002 526.319 459.228)" class="st2" d="M525.8 454.7h1.1v9h-1.1z"/><path id="Rectangle_60" transform="rotate(-60 519.386 463.286)" class="st2" d="M518.8 458.8h1.1v9h-1.1z"/><path id="Rectangle_61" transform="rotate(-60.002 522.842 461.235)" class="st2" d="M522.3 456.7h1.1v9h-1.1z"/><path id="Rectangle_62" transform="rotate(-60 540.743 450.957)" class="st2" d="M540.2 446.4h1.1v9h-1.1z"/><path id="Rectangle_63" transform="rotate(-60 537.019 453.106)" class="st2" d="M536.5 448.6h1.1v9h-1.1z"/><path id="Rectangle_64" transform="rotate(-60 533.542 455.113)" class="st2" d="M533 450.6h1.1v9H533z"/><path id="Rectangle_65" transform="rotate(-60 557.878 441.064)" class="st2" d="M557.3 436.5h1.1v9h-1.1z"/><path id="Rectangle_66" transform="rotate(-60 554.153 443.214)" class="st2" d="M553.6 438.7h1.1v9h-1.1z"/><path id="Rectangle_67" transform="rotate(-60 547.2 447.228)" class="st2" d="M546.6 442.7h1.1v9h-1.1z"/><path id="Rectangle_68" transform="rotate(-60 550.677 445.222)" class="st2" d="M550.1 440.7h1.1v9h-1.1z"/><path id="Rectangle_69" transform="rotate(-60.012 568.603 434.901)" class="st2" d="M568 430.4h1.1v9H568z"/><path id="Rectangle_70" transform="matrix(.5 -.8661 .8661 .5 -96.052 707.71)" class="st2" d="M564.3 432.5h1.1v9h-1.1z"/><path id="Rectangle_71" transform="rotate(-60 561.355 439.056)" class="st2" d="M560.8 434.5h1.1v9h-1.1z"/><path id="Rectangle_72" transform="rotate(-60 585.608 425.054)" class="st2" d="M585 420.5h1.1v9H585z"/><path id="Rectangle_73" transform="rotate(-60.002 581.858 427.162)" class="st2" d="M581.3 422.7h1.1v9h-1.1z"/><path id="Rectangle_74" transform="rotate(-60 574.93 431.218)" class="st2" d="M574.4 426.7h1.1v9h-1.1z"/><path id="Rectangle_75" transform="rotate(-60 578.406 429.212)" class="st2" d="M577.8 424.7h1.1v9h-1.1z"/><path id="Rectangle_76" transform="rotate(-60.007 596.288 418.862)" class="st2" d="M595.7 414.4h1.1v9h-1.1z"/><path id="Rectangle_77" transform="matrix(.5 -.8661 .8661 .5 -68.32 723.721)" class="st2" d="M592 416.5h1.1v9H592z"/><path id="Rectangle_78" transform="rotate(-60.002 589.058 423.004)" class="st2" d="M588.5 418.5h1.1v9h-1.1z"/><path id="Rectangle_79" transform="rotate(-60 613.67 408.854)" class="st2" d="M613.1 404.3h1.1v9h-1.1z"/><path id="Rectangle_80" transform="rotate(-60 609.945 411.003)" class="st2" d="M609.4 406.5h1.1v9h-1.1z"/><path id="Rectangle_81" transform="rotate(-60 602.991 415.018)" class="st2" d="M602.4 410.5h1.1v9h-1.1z"/><path id="Rectangle_82" transform="rotate(-60 606.467 413.011)" class="st2" d="M605.9 408.5h1.1v9h-1.1z"/><path id="Rectangle_83" transform="rotate(-60 624.347 402.689)" class="st2" d="M623.8 398.2h1.1v9h-1.1z"/><path id="Rectangle_84" transform="rotate(-60 620.623 404.84)" class="st2" d="M620.1 400.3h1.1v9h-1.1z"/><path id="Rectangle_85" transform="rotate(-60 617.146 406.847)" class="st2" d="M616.6 402.3h1.1v9h-1.1z"/><path id="Rectangle_86" transform="rotate(-60 570.461 432.21)" class="st2" d="M569.9 426.1h1.1v12.2h-1.1z"/><path id="Rectangle_87" transform="rotate(-60.002 542.707 448.19)" class="st2" d="M542.2 442.1h1.1v12.2h-1.1z"/><path id="Rectangle_88" transform="rotate(-60 598.524 416.011)" class="st2" d="M598 409.9h1.1v12.2H598z"/><path id="Rectangle_89" transform="rotate(-60.002 626.258 399.95)" class="st2" d="M625.7 393.9h1.1v12.2h-1.1z"/><g id="Group_4658" transform="translate(17.392 357.098)"><path id="Path_188" class="st9" d="m3.8 70.4 11.4-6.6c-.3-.8-.4-1.7-.4-2.6v-.4c-.6-1.9-.9-3.9-1-5.9 0-3.4 1.1-6 3.1-7.4l.3-.2c.1 0 .1-.1.2-.1s.1-.1.2-.1l52.1-30.2 14.6-8.5h.1l6-3.4c3.3-1.6 7.8-.1 12.1 4 3.4 3.2 5.8 7.4 6.9 11.9 1.4 5.7.5 10.3-2.6 12.4L34 75.4s-.1 0-.1.1-.1 0-.1.1l-.7.3c-.8.3-1.6.5-2.4.5-1.9-.1-3.7-.6-5.3-1.6-1.8-1.1-3.4-2.4-4.7-3.9-.1-.1-.2-.1-.4-.2-.8-.4-1.5-1-2.1-1.6L6.8 75.5c-.5.4-.8.9-.8 1.5s.3 1.2.8 1.5l1 .6c16.9 9.9 37.8 9.9 54.6 0L80 68.8c4.7-2.8 10.5-2.7 15.2 0l27.6 16c2.1-2 4.3-2.7 6.1-1.9l43.2 25.6.2.1v.1c1.1.9 1.8 2.4 1.6 3.8-.2 4-2.3 7.6-5.7 9.8-.8.5-1.8.8-2.7.8-.4 0-.9-.1-1.3-.3h-.1l-.3-.2h-.2L120.4 97c-1.7-1.2-2.2-3.7-1.3-6.8 0-.2.1-.3.2-.5L92.2 74c-2.8-1.7-6.3-1.7-9.2 0L65.4 84.3c-18.7 11-41.9 11-60.6 0l-1-.6c-3.7-2.2-4.9-6.9-2.7-10.5.6-1.2 1.6-2.1 2.7-2.8"/><path id="Path_189" class="st4" d="m35.5 70.7-15.8-27L92.9 1.3c2.8-1.3 6.9-.3 11.2 3.8 3.3 3.1 5.6 7.1 6.7 11.5 1.4 5.8.3 9.8-2.2 11.6L35.5 70.7"/><path id="Path_190" class="st8" d="M105.2 12.4c2.9 2.8 5.1 6.3 6.3 10.2-.1 3-1.2 5.2-2.8 6.3L35.6 71.3 22.9 49.7 94 8.6c2.8-1.4 6.9-.3 11.2 3.8"/><path id="Path_191" class="st2" d="m35.2 71.7.7-.3L109 29c3-2.1 4-6.8 2.6-12.4-1.1-4.5-3.5-8.7-6.9-11.9-4.2-4.1-8.8-5.6-12.1-4L19.1 43.2l-.2.6.2.3 16.1 27.6zM95.5 1.5c2.4 0 5.3 1.5 8.2 4.2 3.2 3 5.4 6.9 6.5 11.2 1.3 5.1.5 9.1-1.9 10.8l-72.4 42L20.7 44 93.3 2c.7-.4 1.4-.5 2.2-.5"/><path id="Path_192" class="st2" d="M103 32.4c3-2.1 3.9-6.7 2.5-12.4-1.1-4.5-3.5-8.7-6.9-11.9-4.2-4.1-8.8-5.6-12.1-4l.6 1.3c2.7-1.3 6.6.1 10.4 3.7 3.2 3 5.4 6.9 6.5 11.2 1.3 5.1.5 9.1-1.9 10.8l.9 1.3z"/><path id="Path_193" class="st2" d="M88.4 40.9c3-2.1 3.9-6.7 2.5-12.4-1.1-4.5-3.5-8.7-6.9-11.9-4.2-4.1-8.8-5.6-12.1-4l.6 1.3c2.7-1.3 6.6.1 10.4 3.7 3.2 3 5.4 6.9 6.5 11.2 1.3 5.1.5 9.1-1.9 10.8l.9 1.3z"/><path id="Path_194" class="st5" d="M16.8 50.7c0 7.1 5 15.6 11.1 19.2s11.1.7 11.1-6.4-5-15.6-11.1-19.2-11.1-.7-11.1 6.4"/><path id="Path_195" class="st2" d="M32.8 72.1c1.1 0 2.3-.3 3.3-.8 2.3-1.3 3.6-4.1 3.6-7.8 0-7.3-5.1-16.2-11.4-19.8-3.2-1.8-6.2-2.1-8.6-.8S16 47 16 50.7c0 7.3 5.1 16.2 11.4 19.8 1.7 1 3.5 1.6 5.4 1.6m-9.9-28.6c1.6.1 3.2.6 4.6 1.4 5.9 3.4 10.7 11.7 10.7 18.5 0 3.1-1 5.5-2.9 6.5s-4.4.8-7.1-.8c-5.9-3.4-10.7-11.7-10.7-18.5 0-3.1 1-5.5 2.9-6.5.7-.4 1.6-.6 2.5-.6"/><path id="Path_196" class="st4" d="m26.3 66.1-7.2-12.3 3.7-2.3c1.3-.6 3.2-.1 5.1 1.8 1.5 1.4 2.6 3.3 3.1 5.3.7 2.6.1 4.5-1 5.3l-3.7 2.2"/><path id="Path_197" class="st8" d="m25.9 61.9 3.7-2.3c.5-.2 1-.3 1.5-.2.3 2.1-.2 3.6-1.2 4.3L27.7 65l-1.8-3.1"/><path id="Path_198" class="st2" d="m26.4 67 .3-.2 3.7-2.3c1.6-1.1 2-3.3 1.3-6.1-.5-2.1-1.7-4.1-3.3-5.6-2.1-2-4.3-2.7-6-1.9l-4 2.5v.9l7.3 12.5.7.2zm-2.5-15c1.3.2 2.6.8 3.5 1.8 1.4 1.3 2.4 3 2.8 4.9.5 2.1.3 3.8-.7 4.5l-3 1.8L20 53.9l3.1-1.9c.3.1.5 0 .8 0"/><path id="Path_199" class="st5" d="M17.7 57c.2 3.6 2.1 6.8 5.1 8.8 2.8 1.6 5.1.3 5.1-2.9-.2-3.6-2.1-6.8-5.1-8.8-2.8-1.6-5.1-.3-5.1 2.9"/><path id="Path_200" class="st2" d="M25 67.2c.6 0 1.2-.1 1.7-.4 1.3-.9 2-2.4 1.9-3.9-.2-3.8-2.2-7.3-5.4-9.4-1.6-1.3-4-1.1-5.4.5-.7.8-1 2-.8 3 .2 3.8 2.2 7.3 5.4 9.4.8.5 1.7.8 2.6.8m-4.5-13.1c.7 0 1.3.2 1.9.6 2.8 1.8 4.5 4.8 4.7 8.1.3 1.3-.4 2.6-1.7 2.9-.8.2-1.6 0-2.2-.6-2.8-1.8-4.5-4.8-4.7-8.1-.1-1 .3-2 1.1-2.6.2-.2.6-.3.9-.3"/><path id="Path_201" d="m132.7 92 3-5.2-38.4-22.2c-4.7-2.8-10.5-2.8-15.2 0L64.5 74.9c-16.9 9.9-37.8 9.9-54.6 0l-1-.6c-.5-.3-.8-.9-.8-1.5s.3-1.2.9-1.5l14-8.1c1.4-.8 1.9-2.6 1.1-4.1-.8-1.4-2.6-1.9-4.1-1.1L6.3 66c-2.4 1.3-3.9 3.7-4.1 6.4-.2 2.9 1.3 5.6 3.8 7l1 .6c18.7 11 41.9 11 60.6 0l17.6-10.3c2.8-1.7 6.3-1.7 9.2 0L132.7 92z" style="fill:#c5c3c3;stroke:#3d3e3e;stroke-width:1.5"/><path id="Path_202" class="st11" d="m173.9 105-7.4 13-43.3-25.7c-1.3-.9-1.8-3-1-6 .5-1.8 1.5-3.5 2.8-4.8 2.2-2.2 4.2-2.8 5.6-2.2l43.3 25.7"/><path id="Path_203" class="st0" d="M122.6 86.6c.5-1.9 1.5-3.5 2.8-4.9 2.2-2.2 4.2-2.8 5.6-2.2l41.1 24.3-5.3 9.3-43.3-25.7c-.4-.1-.7-.4-.9-.8"/><path id="Path_204" class="st2" d="m166.4 118.8.6-.1.2-.3 7.6-13.3-.3-.6-.2-.1L131 78.7c-1.9-.9-4.3 0-6.5 2.3-1.4 1.4-2.4 3.2-3 5.1-.9 3.1-.4 5.6 1.3 6.8l43.6 25.9zm6.5-13.5-6.7 11.7-42.7-25.3c-1.1-.7-1.3-2.7-.6-5.1.5-1.7 1.4-3.2 2.6-4.5 1.7-1.8 3.6-2.6 4.8-2l42.6 25.2z"/><path id="Path_205" class="st0" d="M170.1 117.6c3.1-2 5.1-5.4 5.3-9.2 0-3.4-2.4-4.7-5.3-3.1-3.1 2-5.1 5.4-5.3 9.2.1 3.4 2.4 4.8 5.3 3.1"/><path id="Path_206" class="st2" d="M167.8 119c1 0 1.9-.3 2.7-.8 3.4-2.2 5.5-5.8 5.7-9.8.4-2.2-1.1-4.2-3.2-4.5-1.1-.2-2.3.1-3.2.8-3.4 2.2-5.5 5.8-5.7 9.8-.2 1.6.6 3.2 1.9 4.1.6.3 1.2.4 1.8.4m2-2.1c-1 1-2.6 1-3.5 0-.6-.6-.9-1.5-.6-2.4.2-3.5 2-6.6 4.9-8.5 1-1 2.6-1 3.5 0 .6.6.9 1.5.6 2.4-.2 3.5-2 6.6-4.9 8.5"/><path id="Path_207" class="st2" d="m164.7 113.3.8-1.3-43-25.4-.8 1.3 43 25.4z"/></g><path id="Path_208" class="st5" d="m392.2 412.4.2-.2 43.2-25.6c1.9-.9 4.3 0 6.5 2.3.1.2.3.3.4.5l41.2-23.9 4.7-5c1-1 2.5-1.2 3.7-.5l4 2.5c.8.5 1 1.5.5 2.3-.2.3-.5.5-.8.7l-8.9 3.4-42.2 24.5c.1.2.2.5.3.7.9 3.1.4 5.6-1.3 6.8l-42.2 24.9c-.6.4-1.4.6-2.1.5-1 0-1.9-.3-2.7-.8-3.2-1.8-6.3-5.5-6.3-9.2 0-1.5.7-2.9 1.8-3.9"/><path id="Path_209" class="st5" d="m499.2 357.6-9.6 3.6-2-2.1 4.9-5.3c.7-.8 1.9-.9 2.8-.4l4 2.5c.4.3.5.8.3 1.2-.1.3-.2.4-.4.5"/><path id="Path_210" class="st4" d="m492.7 355.6 4 2.5c.3.2.5.6.3 1l-7.4 2.8-2-2.1 4.3-4.5c.3 0 .5.1.8.3"/><path id="Path_211" class="st2" d="m489.4 362.1 10-3.8c.9-.3 1.3-1.3 1-2.1-.1-.3-.4-.6-.7-.8l-4-2.5c-1.2-.8-2.8-.6-3.7.5l-5.4 5.8 2.8 2.9zm9.5-5.2-9.1 3.4-1.2-1.2 4.5-4.7c.5-.5 1.2-.6 1.8-.2l4 2.5v.2z"/><path id="Path_212" class="st2" d="m423.6 400.5 67-38.9c1.1-.6 1.5-2 .9-3.1s-2-1.5-3.1-.9h-.1l-67 38.9c-1.1.6-1.4 2-.8 3.1.7 1.2 2.1 1.5 3.1.9"/><path id="Path_213" class="st8" d="m396.2 405.8 7.4 13 43.3-25.7c1.3-.9 1.8-3 1-6-.5-1.8-1.5-3.5-2.8-4.8-2.2-2.2-4.2-2.8-5.6-2.2l-43.3 25.7"/><path id="Path_214" class="st5" d="M447.5 387.3c-.3-1.3-.8-2.4-1.6-3.5-2.6-3.4-5.2-4.3-6.8-3.5l-40.9 24.2c-.1.1-.1.2-.1.3l5.1 8.9.3.1 43.1-25.6c.5-.1.8-.5.9-.9"/><path id="Path_215" class="st4" d="M438.6 384.6c1.7-.8 4.3.2 6.8 3.6.3.3.5.7.7 1.1l-42.5 25.2c-.1 0-.2-.1-.3-.1l-3.7-6.6 39-23.2z"/><path id="Path_216" class="st2" d="M447.3 393.7c1.7-1.1 2.2-3.7 1.3-6.8-.6-1.9-1.6-3.7-3-5.1-2.2-2.3-4.6-3.2-6.5-2.3l-43.3 25.6-.2.1-.3.6 7.6 13.3.2.3.6.1 43.6-25.8zm-7.5-12.9c1.2-.6 3 .2 4.8 2 1.2 1.3 2.1 2.8 2.6 4.5.7 2.4.4 4.4-.6 5.1l-42.7 25.3-6.7-11.7 42.6-25.2z"/><path id="Path_217" class="st0" d="M400 418.3c-3.1-2-5.1-5.4-5.3-9.2 0-3.4 2.4-4.7 5.3-3.1 3.1 2 5.1 5.4 5.3 9.2 0 3.4-2.4 4.8-5.3 3.1"/><path id="Path_218" class="st2" d="M404.1 419.3c1.3-.9 2.1-2.5 1.9-4.1-.2-4-2.3-7.6-5.7-9.8-1.7-1.4-4.2-1.1-5.6.5-.7.9-1 2-.8 3.2.2 4 2.3 7.6 5.7 9.8.8.5 1.8.8 2.7.8.7.1 1.3-.1 1.8-.4m-3.7-1.6c-2.9-1.9-4.7-5.1-4.9-8.5-.3-1.3.5-2.7 1.8-3 .8-.2 1.7 0 2.4.6 2.9 1.9 4.7 5.1 4.9 8.5.3 1.3-.5 2.7-1.8 3-.9.2-1.8 0-2.4-.6"/><path id="Rectangle_90" transform="rotate(-30.563 426.585 400.654)" class="st2" d="M401.6 399.9h50v1.5h-50z"/><path id="Path_219" class="st5" d="m587.7 337.7-8.2-7.9h-.1c-.4-1.4-1.3-2.6-2.6-3.4l-108.2-61.6c-2.7-1.5-6.1-.6-7.6 2.1s-.6 6.1 2.1 7.6l108.2 61.6c1.1.6 2.5.9 3.8.6l.4.3 10.7 3.4c.8.3 1.8-.2 2-1 .1-.6 0-1.2-.5-1.7"/><path id="Path_220" class="st8" d="m575.5 319.5-108.2-61.6c-2.7-1.5-6.1-.6-7.6 2.1s-.6 6.1 2.1 7.6L570 329.2c2.7 1.5 6.1.6 7.6-2.1s.6-6.1-2.1-7.6"/><path id="Path_221" class="st7" d="m576.7 323.1-108.2-61.6c-2.7-1.5-6.1-.6-7.6 2.1s1 4.4 3.7 5.9l106.6 60.1c2.7 1.5 5.9 2.2 7.4-.5s.7-4.5-1.9-6"/><path id="Path_222" class="st2" d="M572.8 330.7c.6 0 1.1-.1 1.7-.2 3.4-.9 5.4-4.4 4.5-7.8-.4-1.6-1.5-3-3-3.9l-108.2-61.6c-3.1-1.7-7-.7-8.7 2.4-1.7 3.1-.7 7 2.4 8.7l108.2 61.6c.9.5 2 .8 3.1.8M464.6 258c.8 0 1.6.2 2.3.6l108.2 61.6c2.3 1.3 3.1 4.1 1.9 6.4s-4.1 3.1-6.4 1.9c0 0-.1 0-.1-.1l-108.2-61.6c-2.3-1.3-3.1-4.2-1.8-6.5.6-1.1 1.6-1.9 2.9-2.2.3 0 .7-.1 1.2-.1"/><path id="Path_223" class="st12" d="m514.2 281.6-39.5-22.5c-1.1-.6-2.4-.2-3.1.8l-.2.4c-.6 1.1-.2 2.4.8 3.1l39.5 22.5c1.1.6 2.4.2 3.1-.8l.2-.4c.6-1.1.2-2.4-.8-3.1"/><path id="Path_224" class="st5" d="m513.8 283.7-39.5-22.5c-1.1-.6-2.4-.2-3.1.8l-.2.4c-.6 1.1-.2 2.4.8 3.1l39.5 22.5c1.1.6 2.4.2 3.1-.8l.2-.4c.7-1.1.3-2.5-.8-3.1"/><path id="Path_225" class="st2" d="M512.8 287c1.1 0 2.1-.6 2.7-1.6l.2-.4c.8-1.5.3-3.3-1.1-4.2l-39.5-22.5c-1.5-.8-3.3-.3-4.2 1.1l-.2.4c-.8 1.5-.3 3.3 1.1 4.2l39.5 22.5c.5.4 1 .5 1.5.5m-39.2-27.3c.2 0 .5.1.7.2l39.5 22.5c.7.4.9 1.3.5 1.9l-.2.4c-.4.7-1.2.9-1.9.5l-39.5-22.5c-.7-.4-.9-1.3-.5-1.9l.2-.4c.2-.3.5-.6.9-.7h.3"/><path id="Path_226" class="st11" d="m574.2 330.1-.9-.7c-1.7-1.4-1.9-3.9-.5-5.6 1-1.3 2.7-1.8 4.3-1.3l1.3.4 8.2 7.9c.6.6.7 1.6.1 2.3-.4.4-1.1.6-1.7.4l-10.8-3.4z"/><path id="Path_227" class="st9" d="M576.9 325c-1.9-.6-3.9.3-4.8 2.1.2.8.7 1.5 1.3 2l.9.7 10.7 3.4c.4.1.8.1 1.2-.1l-8-7.7-1.3-.4z"/><path id="Path_228" class="st2" d="M585.3 334.4c1.3 0 2.4-1.1 2.4-2.4 0-.7-.3-1.3-.7-1.8l-8.3-8-1.5-.5c-2.5-.8-5.2.6-6 3.1-.6 1.9 0 3.9 1.5 5.1l1.2.9 10.7 3.4c.2.2.5.2.7.2m-7.5-10.7 8.1 7.8c.3.3.3.8 0 1.1-.2.2-.5.3-.8.2l-10.5-3.4-.8-.6c-1.3-1.1-1.5-3.1-.4-4.4.8-1 2.2-1.4 3.4-1l1 .3z"/><path id="Path_229" class="st2" d="m572.1 327.2-113.5-64.7.8-1.4 112.7 64.2v1.9z"/><path id="Path_230" class="st5" d="m332.4 384 22.9 13.2c2.6 1.5 7 1.3 10-.4l21.5-12.4c3-1.7 3.3-4.3.7-5.8l-9.8-5.7c-9.8-5.7-26.9-4.9-38.2 1.6l-6.4 3.7c-3 1.7-3.3 4.3-.7 5.8"/><path id="Path_231" class="st9" d="M333.5 374.5v-10.7c0-.1.1-.1.1-.1l19.9-.3a46.3 46.3 0 0 1 18.9-.3l10-.2h9.3c.1 0 .1.1.1.1v10.9c.1 1.2-.7 2.5-2.4 3.5l-21.5 12.4c-3 1.7-7.4 1.9-10 .4L335.2 377c-1-.5-1.7-1.4-1.7-2.5"/><path id="Path_232" class="st3" d="m360.2 379.4 11.6-16.8c.2 0 .4.1.7.1l10-.1h9.3c.1 0 .1.1.1.1v10.9c.1 1.2-.7 2.5-2.4 3.5L368 389.5c-2.5 1.3-5.4 1.7-8.1 1.1 0-.1 0-.2-.1-.3v-10.7c.2-.1.2-.2.4-.2"/><path id="Path_233" class="st2" d="M362.5 392c2.1 0 4.2-.5 6-1.5L390 378c1.9-1.1 3-2.7 2.8-4.2V363c0-.5-.4-.9-.9-.9h-9.3l-10.1.2c-6.3-1.2-12.8-1.1-19.1.3l-19.8.3c-.5 0-.9.4-.9.9v10.7c.1 1.4.9 2.6 2.1 3.2l22.9 13.2c1.5.7 3.1 1.1 4.8 1.1m28.8-28.4v10.3c.1 1-.7 2.1-2.1 2.9l-21.5 12.4c-2.7 1.6-6.9 1.8-9.3.4l-22.9-13.2c-.7-.3-1.3-1-1.4-1.9v-10.1l19.5-.3c6.1-1.4 12.5-1.5 18.6-.3h.2l10.1-.2h8.8z"/><path id="Path_234" class="st4" d="m335.2 366 22.9 13.2c2.6 1.5 7 1.3 10-.4l21.5-12.4c3-1.7 3.3-4.3.7-5.8l-9.8-5.7c-9.8-5.7-26.9-4.9-38.2 1.6l-6.4 3.7c-2.9 1.7-3.3 4.3-.7 5.8"/><path id="Path_235" class="st2" d="M362.5 381c2.1 0 4.2-.5 6-1.5L390 367c1.8-1 2.8-2.5 2.8-3.9-.1-1.4-.9-2.6-2.1-3.2l-9.8-5.7c-10-5.8-27.5-5.1-39 1.6l-6.4 3.7c-1.8 1-2.8 2.5-2.8 3.9.1 1.4.9 2.6 2.1 3.2l22.9 13.2c1.5.8 3.1 1.2 4.8 1.2m1.4-29.1c6.1 0 11.9 1.2 16.2 3.7l9.8 5.7c.8.3 1.3 1 1.4 1.9 0 .9-.8 1.9-2.1 2.6l-21.5 12.4c-2.7 1.6-6.9 1.7-9.3.4l-22.9-13.2c-.8-.3-1.3-1-1.4-1.9 0-.9.8-1.9 2.1-2.6l6.4-3.7c6.6-3.6 13.9-5.4 21.3-5.3"/><path id="Path_236" class="st5" d="M352.2 357.9c-5.8 3.4-5.8 8.8 0 12.2s15.3 3.4 21.1 0c5.8-3.4 5.8-8.8 0-12.2-5.8-3.4-15.3-3.4-21.1 0"/><path id="Path_237" class="st2" d="M362.8 373.3c3.8.1 7.6-.8 10.9-2.6 3.1-1.8 4.7-4.2 4.7-6.7s-1.7-5-4.7-6.7c-6-3.5-15.8-3.5-21.9 0-3.1 1.8-4.7 4.2-4.7 6.7 0 2.6 1.7 5 4.7 6.7 3.4 1.8 7.2 2.7 11 2.6m0-17.2c3.5-.1 7.1.8 10.2 2.4 2.6 1.5 4 3.4 4 5.5 0 2-1.4 4-4 5.5-5.6 3.2-14.8 3.2-20.4 0-2.6-1.5-4-3.4-4-5.5 0-2 1.4-4 4-5.5 3.1-1.7 6.6-2.5 10.2-2.4"/><path id="Path_238" class="st8" d="M369.1 359.5a22.5 22.5 0 0 0-12.6 0c-4.6 1.3-7.3 3.5-8.3 5.9l-.1.1-.1-.1c-1-3.5 1.8-7.4 8.5-9.3 4.1-1.2 8.4-1.2 12.5 0 6.7 1.9 9.5 5.7 8.5 9.3l-.1.1s-.1 0-.1-.1c-.9-2.4-3.7-4.6-8.2-5.9"/><path id="Path_239" class="st2" d="M348.1 366.2c.3 0 .7-.2.8-.5.9-2.3 3.8-4.3 7.8-5.5 4-1.1 8.2-1.1 12.2 0s6.8 3.1 7.8 5.5l.2.5h.6c.4 0 .7-.3.8-.6.4-1.6.2-3.2-.6-4.6-1.4-2.4-4.3-4.4-8.4-5.6-4.2-1.2-8.7-1.2-12.9 0-4.1 1.2-7.1 3.1-8.4 5.6-.8 1.4-1 3.1-.6 4.6l.1.5.6.1zm14.7-8.4c-2.2 0-4.4.3-6.5.9-3.5 1-6.1 2.5-7.6 4.5.1-.5.3-1.1.6-1.5 1.2-2.1 3.8-3.8 7.5-4.9 4-1.1 8.1-1.1 12.1 0 3.7 1.1 6.4 2.8 7.5 4.9.3.5.5 1 .6 1.5-1.5-1.9-4.2-3.5-7.6-4.5-2.2-.5-4.4-.9-6.6-.9"/><path id="Path_240" class="st13" d="m365 380.8.8-.4c.2-.1.4-.1.7-.1h5.1c.1 0 .2.1.2.2v.1l-4.5 11.9c0 .1-.1.1-.2.1-.6-.3-2.5-1.4-2.5-1.4-.3-.2-.4-.6-.4-.9v-7.4c-.2-.9.2-1.7.8-2.1"/><path id="Path_241" class="st2" d="m366.8 393.2.5-.1c.3-.1.5-.3.6-.5l4.5-11.9c.1-.3.1-.6-.1-.8-.2-.2-.5-.4-.8-.4h-5c-.4-.1-.7 0-1.1.2l-.8.4c-.9.6-1.4 1.6-1.4 2.6v7.4c0 .6.2 1.1.7 1.5.3.2 1 .6 2.4 1.4l.5.2zm3.9-12.2-4 10.5c-.7-.4-1.6-.9-1.8-1-.1-.1-.1-.2-.1-.3v-7.4c0-.5.3-1 .7-1.3l.8-.4h.2l4.2-.1z"/><path id="Path_242" class="st4" d="m368 392.7 3.3-2.1c.6-.5 1-1.2 1-2v-7.4c0-.8-.5-1.1-1-.8l-3.3 2.1c-.6.5-1 1.2-1 2v7.4c0 .7.4 1.1 1 .8"/><path id="Path_243" class="st2" d="M367.6 393.5c.3 0 .5-.1.8-.2l3.3-2.1c.9-.6 1.4-1.6 1.4-2.6v-7.4c0-.6-.2-1.2-.7-1.5-.4-.2-1-.2-1.4.1l-3.3 2.1c-.9.6-1.4 1.6-1.4 2.6v7.4c0 .6.2 1.2.7 1.5.2.1.4.1.6.1m4-12.5c0 .1 0 .1 0 0v7.5c0 .5-.3 1-.7 1.3l-3.2 2v-7.5c0-.5.3-1 .7-1.3l3.2-2z"/><path id="Path_244" class="st0" d="M335.5 372.7c.1 1.1.6 2.1 1.6 2.7.9.5 1.6.1 1.6-.9-.1-1.1-.6-2.1-1.6-2.7-.9-.5-1.6-.1-1.6.9"/><path id="Path_245" class="st2" d="M337.7 376.4c.3 0 .5-.1.8-.2.6-.4.9-1 .8-1.6-.1-1.4-.8-2.6-1.9-3.3-.7-.6-1.8-.4-2.3.3-.3.3-.4.8-.3 1.2.1 1.4.8 2.6 1.9 3.3.3.2.6.3 1 .3m-1.4-4c.1 0 .2 0 .3.1.7.5 1.1 1.2 1.2 2 0 .1 0 .3-.1.4-.1 0-.2 0-.4-.1-.7-.5-1.1-1.2-1.2-2 .1-.2.1-.3.2-.4"/><path id="Path_246" class="st2" d="M325.2 385.1c2.4 0 4.7-.5 6.8-1.6 3.8-1.8 6.1-5.8 5.8-9.9l-1.5.2c0 .2.6 5.4-5 8.4-4.4 2.4-9.9 1.4-11.5.1-.4-.3-1.3-1.2-1.1-2.1.2-.5 1.1-2.2 7.1-2.7 3.6-.3 6.1-1.3 7.4-3 .7-.8 1.1-1.9 1-3l-1.5.2c0 .7-.2 1.4-.7 1.9-.8.9-2.5 2-6.4 2.4-6.1.5-8 2.3-8.4 3.7-.4 1.2.2 2.6 1.5 3.7 1.3 1 3.7 1.7 6.5 1.7"/><path id="Rectangle_91" class="st2" d="M352.6 357.3h1.5v3.4h-1.5z"/><path id="Rectangle_92" class="st2" d="M374.6 359.3h1.5v3.4h-1.5z"/><path id="Path_247" class="st0" d="M414.9 119c-25.7 14.9-25.7 39 0 53.8 25.7 14.9 67.5 14.9 93.2 0s25.7-39 0-53.8c-25.7-14.9-67.4-14.9-93.2 0"/><path id="Path_248" class="st0" d="M407.9 35.4h118v102.1c0 8.7-5.8 17.4-17.3 24.1-23 13.3-60.4 13.3-83.5 0-11.5-6.7-17.3-15.4-17.3-24.1l.1-102.1z"/><path id="Path_249" class="st14" d="M466.9 172.5c15.3 0 30.6-3.4 42.2-10.1 11.4-6.6 17.7-15.4 17.7-24.9v-103H406.9v103.1c0 9.4 6.3 18.3 17.7 24.9 11.7 6.7 27 10 42.3 10M525 36.4v101.2c0 8.8-6 17-16.8 23.3-22.8 13.1-59.8 13.1-82.5 0-10.8-6.3-16.8-14.5-16.8-23.3V36.4H525z"/><path id="Rectangle_93" class="st14" d="M517.4 52.2h1.9v102h-1.9z"/><path id="Rectangle_94" class="st14" d="M419.1 56.1h1.9v102.1h-1.9z"/><path id="Rectangle_95" class="st14" d="M424.9 59.9h1.9V162h-1.9z"/><path id="Rectangle_96" class="st14" d="M438.7 65.8h1.9v102.1h-1.9z"/><path id="Path_250" class="st5" d="M505.6 57.9c-1.6 4.3-4.2 8.1-7.5 11.2-2.4 2.2-4.9 4.1-7.7 5.8-3.6 2.2-7.1 5.5-5.7 9.9 2.7 8.1-7.9 9-5.9 0 1.8-8.1-1.7-10.7-6.6-10.3-4.9.4-6.6 9.1-4.3 18.8s.3 14.3-4.7 14.1c-5-.2-5.7-9.5-3.4-15.6 2.2-6 .9-19.3-7.2-17.1-4.3 1.2-11.1 6.5-15.4-3.3-2.3-4.7-5.7-8.8-10-11.8l79.1-3.8-.7 2.1z"/><path id="Path_251" class="st8" d="M480.8 83.1c-1.5-4.4 2.1-7.7 5.7-9.9 2.8-1.7 5.3-3.6 7.7-5.8 3.3-3.1 5.9-7 7.5-11.2l4.7-.2-.8 2c-1.6 4.3-4.2 8.1-7.5 11.2-2.4 2.2-4.9 4.1-7.7 5.8-3.6 2.1-7.1 5.5-5.7 9.9 2.1 6.4-3.9 8.3-5.7 4.4 1.7-.7 2.9-2.8 1.8-6.2"/><path id="Path_252" class="st8" d="M448.8 73c2-.7 4.2-.1 5.5 1.5-.5 0-1 .1-1.5.2-3.5 1-8.7 4.7-12.8.7 3.1.3 6.4-1.7 8.8-2.4"/><path id="Path_253" class="st8" d="M464.1 91.5c-2.4-9.7-.6-18.4 4.3-18.8 2.3-.2 4.3.3 5.6 1.8h-1.6c-4.9.4-6.6 9.1-4.3 18.8s.3 14.3-4.7 14.1c-1.3-.1-2.4-.7-3.1-1.8 4.3-.4 6-5 3.8-14.1"/><path id="Path_254" class="st14" d="M463.6 108.3c1.8.1 3.5-.7 4.7-2 2-2.5 2.2-6.9.7-13.2-1.6-6.6-1.3-13.1.9-16 .6-.9 1.5-1.5 2.6-1.6 1.5-.1 3.6 0 4.8 1.5 1.3 1.5 1.5 4.2.7 7.7-1 4.6 1 6.4 1.9 6.9 1.4.9 3.2.8 4.5-.3 1.7-1.4 2.2-3.9 1.3-6.8-1-3.1.7-6 5.3-8.8 2.8-1.7 5.4-3.7 7.9-5.9 3.4-3.2 6.1-7.2 7.8-11.6l1.3-3.4-83.4 4 2.4 1.6c.1 0 6.6 4.4 9.7 11.4 3.9 8.9 10 6.3 14.1 4.7l2.4-.9c1.6-.6 3.3-.1 4.4 1.1 2.8 3 3.2 10.5 1.6 14.8-1.6 4.4-1.9 11.1.4 14.6.8 1.3 2.3 2.2 3.8 2.2h.2m9.6-34.8h-1c-1.6.2-3 1-3.9 2.4-2.5 3.4-2.9 10.3-1.2 17.5 1.8 7.1.8 10.3-.3 11.6-.8 1-2.1 1.5-3.4 1.4-1 0-1.9-.6-2.4-1.4-1.8-2.6-1.9-8.4-.2-12.9 1.6-4.3 1.6-12.8-2-16.7a5.78 5.78 0 0 0-6.3-1.6c-.9.3-1.8.6-2.6 1-4.2 1.7-8.5 3.5-11.7-3.7-1.9-4.1-4.7-7.8-8.3-10.7l75.1-3.6-.3.7c-1.6 4.1-4.1 7.9-7.3 10.9-2.3 2.2-4.8 4.1-7.6 5.7-5.3 3.2-7.4 7-6.1 10.9.7 2.1.5 3.9-.6 4.7-.7.6-1.6.6-2.4.1-1.2-.7-1.6-2.6-1.1-5 .9-4.2.6-7.4-1.2-9.4-1.2-1.2-3.2-2-5.2-1.9"/><path id="Path_255" class="st15" d="M425.1 11.3c-23 13.3-23 34.9 0 48.2s60.4 13.3 83.5 0c23-13.3 23-34.9 0-48.2-23-13.3-60.4-13.3-83.5 0"/><path id="Path_256" class="st14" d="M466.9 70.9c15.4 0 30.7-3.4 42.4-10.1 11.6-6.7 18-15.7 18-25.3s-6.4-18.6-18-25.3c-23.4-13.5-61.5-13.5-84.9 0-11.6 6.7-18 15.7-18 25.3s6.4 18.6 18 25.3c11.7 6.7 27.1 10.1 42.5 10.1m0-68.2c14.9 0 29.7 3.3 41 9.8 10.7 6.2 16.6 14.3 16.6 22.9s-5.9 16.7-16.6 22.9c-22.6 13.1-59.4 13.1-82.1 0-10.7-6.2-16.6-14.3-16.6-22.9s5.9-16.7 16.6-22.9C437.1 6 452 2.7 466.9 2.7"/><path id="Path_257" class="st11" d="M432.2 15.4c-19.2 11.1-19.2 29 0 40.1 19.2 11.1 50.2 11.1 69.4 0s19.2-29 0-40.1c-19.2-11.1-50.3-11.1-69.4 0"/><path id="Path_258" class="st0" d="M490.8 30.6c11.1 6.4 15.7 15.1 14 23.4-1 .7-2.1 1.4-3.2 2-19.2 11.1-50.2 11.1-69.4 0-11.1-6.4-15.7-15.1-14-23.4 1-.7 2.1-1.4 3.2-2 19.2-11 50.3-11 69.4 0"/><path id="Path_259" class="st14" d="M466.9 64.7c12.7 0 25.5-2.8 35.2-8.4 9.6-5.5 14.8-12.9 14.8-20.8s-5.3-15.3-14.8-20.8c-19.4-11.2-50.9-11.2-70.3 0-9.6 5.5-14.8 12.9-14.8 20.8s5.3 15.3 14.8 20.8c9.6 5.6 22.3 8.4 35.1 8.4m0-56.7c12.4 0 24.8 2.7 34.2 8.2 9 5.2 13.9 12 13.9 19.2s-4.9 14.1-13.9 19.2c-18.9 10.9-49.6 10.9-68.5 0-9-5.2-13.9-12-13.9-19.2s4.9-14.1 13.9-19.2c9.5-5.5 21.9-8.2 34.3-8.2"/><path id="Path_260" class="st8" d="M432.2 37.3c19.2-11.1 50.2-11.1 69.4 0 4.1 2.3 7.7 5.4 10.6 9.1-2.8 3.7-6.4 6.8-10.6 9.1-19.2 11.1-50.2 11.1-69.4 0-4.1-2.3-7.7-5.4-10.6-9.1a31 31 0 0 1 10.6-9.1"/><path id="Path_261" class="st5" d="M496.3 43.9c3.9 2.1 7.3 5 10.1 8.5-1.5 1.2-3.1 2.2-4.8 3.2-19.2 11.1-50.2 11.1-69.4 0-3.9-2.1-7.3-5-10.1-8.5 1.5-1.2 3.1-2.2 4.8-3.2 19.2-11 50.2-11 69.4 0"/><path id="Path_262" class="st14" d="M466.9 64.7c12.7 0 25.5-2.8 35.2-8.4 4.2-2.3 7.9-5.5 10.9-9.4l.4-.5-.4-.5c-2.9-3.8-6.6-7-10.9-9.4-19.4-11.2-50.9-11.2-70.3 0-4.2 2.3-7.9 5.5-10.9 9.4l-.4.5.4.5c2.9 3.8 6.6 7 10.9 9.4 9.6 5.6 22.3 8.4 35.1 8.4M511 46.4c-2.7 3.4-6.1 6.2-9.9 8.3-18.9 10.9-49.6 10.9-68.5 0-3.8-2.1-7.2-4.9-9.9-8.3 2.7-3.4 6.1-6.2 9.9-8.3 18.9-10.9 49.6-10.9 68.5 0 3.8 2.1 7.2 4.9 9.9 8.3"/><path id="Path_263" class="st11" d="M501.6 21.4c-19.2-11.1-50.2-11.1-69.4 0-8.1 4.7-12.8 10.6-14 16.7h-.1c-1.4-8.1 3.4-16.5 14.1-22.8 19.2-11.1 50.2-11.1 69.4 0 10.8 6.2 15.5 14.6 14.1 22.8h-.1c-1.2-6.1-5.9-12-14-16.7"/><path id="Path_264" class="st14" d="m418.8 39.1.2-.8c1.2-6.1 5.9-11.7 13.6-16.1 18.9-10.9 49.6-10.9 68.5 0 7.7 4.4 12.4 10 13.6 16.1l.2.8h1.6l.2-.8c1.5-8.9-3.8-17.5-14.6-23.7-19.4-11.2-50.9-11.2-70.3 0-10.8 6.2-16.1 14.9-14.6 23.7l.1.8h1.5zM466.9 8c12.4 0 24.8 2.7 34.2 8.2 8 4.6 12.8 10.6 13.7 17-2.4-4.7-6.7-9-12.8-12.5-19.4-11.2-50.9-11.2-70.3 0-6.1 3.5-10.5 7.8-12.8 12.5.9-6.3 5.7-12.3 13.7-16.9 9.5-5.6 21.9-8.3 34.3-8.3"/><path id="Path_265" class="st9" d="M490.9 185.1c-17.6 10.2-17.6 26.6 0 36.8 17.6 10.2 46.1 10.2 63.7 0s17.6-26.6 0-36.8c-17.6-10.2-46.1-10.2-63.7 0"/><path id="Path_266" class="st9" d="M489.8 164.4h75.3v33.3c0 5.6-3.7 11.1-11 15.4-14.7 8.5-38.5 8.5-53.2 0-7.3-4.2-11-9.8-11-15.4v-33.3z"/><path id="Path_267" class="st2" d="M527.5 220.1c9.8 0 19.5-2.1 27-6.4 7.3-4.2 11.4-9.9 11.4-16v-34h-76.8v34c0 6.1 4 11.8 11.4 16 7.4 4.2 17.2 6.4 27 6.4m36.8-55v32.5c0 5.5-3.8 10.8-10.6 14.7-14.5 8.4-38 8.4-52.5 0-6.9-4-10.6-9.2-10.6-14.7v-32.5h73.7z"/><path id="Rectangle_97" transform="translate(-.257 .753)" class="st2" d="M559.5 175h1.5v33.2h-1.5z"/><path id="Rectangle_98" class="st2" d="M496.8 177.6h1.5v33.3h-1.5z"/><path id="Rectangle_99" class="st2" d="M500.5 180h1.5v33.3h-1.5z"/><path id="Rectangle_100" class="st2" d="M509.3 183.8h1.5v33.3h-1.5z"/><path id="Path_268" class="st5" d="M502.7 178.7c1 2.7 2.7 5.2 4.8 7.2 1.5 1.4 3.2 2.6 4.9 3.7 2.3 1.4 4.5 3.5 3.6 6.3-1.7 5.2 5 5.7 3.8 0-1.1-5.1 1.1-6.8 4.2-6.6 3.1.2 4.2 5.8 2.7 12s-.2 9.1 3 9c3.2-.1 3.6-6.1 2.2-9.9-1.4-3.8-.6-12.3 4.6-10.9 2.7.8 7.1 4.2 9.8-2.1 1.4-3 3.6-5.6 6.4-7.5l-50.4-2.4.4 1.2z"/><path id="Path_269" class="st8" d="M543.6 187.1c1.3-2.8 3.3-5.2 5.8-7.1l3.3.2c-2.7 1.9-4.9 4.5-6.4 7.5-1.9 4.5-4.7 4-7.2 3.1 1.6 0 3.2-.9 4.5-3.7"/><path id="Path_270" class="st8" d="M529.2 200.1c-1.4-3.9-.6-12.3 4.6-10.9.4.1.9.3 1.3.5-3.9.4-4.4 7.6-3.2 11 1.4 3.9 1 9.8-2.2 9.9-.8.1-1.6-.2-2.2-.7 2.7-.7 3-6.2 1.7-9.8"/><path id="Path_271" class="st8" d="M517.1 195.6c-1.1-5.1 1.1-6.8 4.2-6.6.5 0 1 .3 1.5.6-2.4.3-3.9 2.1-3 6.6.9 4.2-2.4 5-3.6 3.2.8-.6 1.4-1.8.9-3.8"/><path id="Path_272" class="st2" d="M529.5 211h.2c1.1 0 2-.6 2.6-1.5 1.5-2.3 1.3-6.6.3-9.4-1-2.6-.8-7.4 1-9.3.7-.8 1.7-1 2.7-.7l1.5.6c2.7 1.1 6.6 2.7 9.2-3.1 1.4-2.9 3.5-5.4 6.1-7.2l1.9-1.3-53.9-2.6.9 2.4c1.1 2.8 2.8 5.4 5 7.4 1.5 1.4 3.2 2.7 5 3.8 2.8 1.7 3.9 3.5 3.3 5.4-.6 1.9-.3 3.6.9 4.5.9.7 2.1.8 3.1.2 1.3-.8 1.7-2.5 1.3-4.6-.5-2.2-.3-3.9.4-4.8.8-.8 1.9-1.1 3-.9.6.1 1.2.4 1.5 1 1.3 1.9 1.6 5.9.5 10.1-1 4.1-.9 7 .4 8.6.8.9 2 1.4 3.1 1.4m5.8-22.5c-1.1 0-2.1.5-2.9 1.3-2.3 2.5-2.3 8-1.3 10.8 1 2.8 1 6.5-.1 8.1-.3.5-.8.8-1.4.8-.8.1-1.6-.2-2.1-.8-1-1.2-1-3.8-.2-7.3 1.1-4.6.8-9.1-.8-11.3-.6-.9-1.6-1.5-2.6-1.6-1.5-.2-3.1.3-4.2 1.4-1.1 1.3-1.4 3.3-.8 6.1.3 1.4.1 2.6-.6 3-.4.3-1 .2-1.3-.1-.6-.5-.8-1.6-.4-2.9.6-1.8.4-4.5-3.9-7.2-1.7-1-3.3-2.3-4.8-3.6-2-1.9-3.6-4.3-4.6-6.9l-.7.3.7-.3-.1-.2 47.3 2.3c-2.1 1.8-3.8 4.1-5 6.6-1.9 4.5-4.5 3.4-7.2 2.3-.6-.2-1.1-.4-1.7-.6-.4-.1-.8-.2-1.3-.2"/><path id="Path_273" class="st16" d="M500.8 149c-14.7 8.5-14.7 22.2 0 30.7s38.5 8.5 53.2 0c14.7-8.5 14.7-22.2 0-30.7-14.6-8.5-38.5-8.5-53.2 0"/><path id="Path_274" class="st2" d="M527.5 187.2c9.8 0 19.7-2.2 27.2-6.5s11.6-10.1 11.6-16.3c0-6.2-4.1-12-11.6-16.3-15-8.7-39.4-8.6-54.3 0-7.5 4.3-11.6 10.1-11.6 16.3s4.1 12 11.6 16.3c7.4 4.3 17.2 6.5 27.1 6.5m0-43.5c9.4 0 18.9 2.1 26.1 6.2 6.7 3.9 10.5 9 10.5 14.4s-3.7 10.5-10.5 14.4c-14.4 8.3-37.7 8.3-52.1 0-6.7-3.9-10.5-9-10.5-14.4s3.7-10.5 10.5-14.4c7.1-4.1 16.5-6.2 26-6.2"/><path id="Path_275" class="st0" d="M505.3 151.6c-12.2 7.1-12.2 18.5 0 25.6s32 7.1 44.3 0c12.2-7.1 12.2-18.5 0-25.6-12.2-7.1-32.1-7.1-44.3 0"/><path id="Path_276" class="st2" d="M527.5 183.2c8.1 0 16.3-1.8 22.5-5.4 6.2-3.6 9.5-8.3 9.5-13.4s-3.4-9.9-9.5-13.4c-12.4-7.2-32.6-7.2-45 0-6.1 3.6-9.5 8.3-9.5 13.4s3.4 9.9 9.5 13.4c6.2 3.6 14.3 5.4 22.5 5.4m0-36.2c7.9 0 15.8 1.7 21.8 5.2 5.7 3.3 8.8 7.6 8.8 12.1s-3.1 8.9-8.8 12.1c-12 6.9-31.5 6.9-43.5 0-5.7-3.3-8.8-7.6-8.8-12.1s3.1-8.9 8.8-12.1c5.9-3.4 13.8-5.2 21.7-5.2"/><path id="Path_277" class="st5" d="M523.6 165.1c-2.1 1.2-2.1 3.2 0 4.5 2.4 1.2 5.3 1.2 7.8 0 2.1-1.2 2.1-3.2 0-4.5-2.5-1.2-5.4-1.2-7.8 0"/><path id="Path_278" class="st2" d="M527.5 168.3c1.5 0 2.9-.3 4.2-1 1.6-.6 2.4-2.4 1.8-4-.3-.8-1-1.5-1.8-1.8-2.7-1.4-5.8-1.4-8.5 0-1.6.6-2.4 2.4-1.8 4 .3.8 1 1.5 1.8 1.8 1.3.6 2.8 1 4.3 1m0-6.4c1.2 0 2.4.3 3.5.8.9.2 1.4 1.1 1.2 2-.2.6-.6 1-1.2 1.2-2.2 1.1-4.8 1.1-7 0-.9-.2-1.4-1.1-1.2-2 .2-.6.6-1 1.2-1.2 1-.5 2.2-.8 3.5-.8"/><path id="Path_279" class="st17" d="M549.6 155.4c-12.2-7.1-32-7.1-44.3 0-5.2 3-8.2 6.8-8.9 10.7-.9-5.2 2.1-10.5 9-14.5 12.2-7.1 32-7.1 44.3 0 6.9 4 9.9 9.3 9 14.5-1-3.9-3.9-7.7-9.1-10.7"/><path id="Path_280" class="st2" d="M558.6 166.9h.6l.1-.6c1-5.7-2.5-11.3-9.4-15.3-12.4-7.2-32.6-7.2-45 0-6.9 4-10.3 9.6-9.4 15.3l.1.6h1.3l.2-.6c.8-3.9 3.7-7.4 8.6-10.2 12-6.9 31.5-6.9 43.5 0 4.8 2.8 7.8 6.3 8.6 10.2l.1.6h.7zm-31.2-17.5c-8.2 0-16.3 1.8-22.5 5.4-3.2 1.7-5.8 4.2-7.8 7.2.9-3.6 3.8-7 8.5-9.7 12-6.9 31.5-6.9 43.5 0 4.7 2.7 7.6 6.1 8.5 9.7-1.9-3-4.6-5.5-7.7-7.2-6.1-3.6-14.3-5.4-22.5-5.4"/><path id="Path_281" class="st5" d="m284.9 184.3-85.5-49.8c-2.1-1.2-4.8-1.2-6.9 0L37.9 224.7c-1.1.6-1.5 2.1-.8 3.2.2.3.5.6.8.8l85.5 49.8c2.1 1.2 4.8 1.2 6.9 0l154.6-90.3c1.1-.6 1.5-2.1.8-3.2-.2-.3-.5-.5-.8-.7"/><path id="Path_282" class="st0" d="m218.9 38.4 19.3-19.6-1.7-3.1c-.1-.2 0-.4.1-.5l12.1-7c.1-.1.2-.1.4-.2 2.7-1.4 7.1 1.5 9.3 6.4l29.3 63.7c2.2 4.6 3.4 9.7 3.6 14.8v79.6c.1 1-.3 2-1 2.7l-.1.1c-.2.1-.4.3-.6.3l-12.9 7.4c-.2.1-.5.1-.6-.2v-.1c-.5-1.8-2-7.6-4.1-16l-51.9-30c-2.8-1.8-4.5-4.8-4.7-8.1V49.1c-.1-4.6 1.2-8.3 3.5-10.7"/><path id="Path_283" class="st15" d="m216.2 44.2 19.3-19.6-1.7-3c-.1-.2 0-.4.1-.5l12.1-7c.1-.1.2-.1.4-.2 2.7-1.4 7.1 1.5 9.3 6.4L285 84c1.3 2.8 2.3 5.8 2.9 8.9l-2.7 1.6-37.3 22.3 19.9.7c-2.3 2.4-3.6 6.1-3.6 10.7v41.6l-46.9-27.1c-2.8-1.8-4.5-4.8-4.7-8.1V54.9c0-4.6 1.2-8.3 3.6-10.7"/><path id="Path_284" class="st14" d="M276.4 184.1c.2 0 .5-.1.7-.2l12.9-7.4c.3-.1.5-.2.7-.4 1-.9 1.5-2.2 1.5-3.5V92.9c-.1-5.3-1.4-10.5-3.7-15.2L259.2 14c-1.6-3.4-4.2-6-6.8-7-1.2-.5-2.6-.4-3.8.1-.2.1-.3.2-.5.3l-12 7c-.6.4-.8 1.2-.5 1.8l1.4 2.4-18.8 19.1c-2.5 2.6-3.9 6.5-3.9 11.4v79.6c.2 3.6 2.1 6.9 5.1 8.9l51.5 29.8 4 15.6c.3.7.9 1.1 1.5 1.1M250.5 8.6c.4 0 .8.1 1.2.2 2.2.7 4.4 3.1 5.7 6l29.3 63.7c2.2 4.5 3.4 9.4 3.5 14.4v79.6c.1.7-.2 1.5-.7 2-.1.1-.2.2-.4.2l-12.5 7.1-4-15.8-52.1-30c-2.5-1.6-4-4.3-4.2-7.3V49.1c0-4.3 1.2-7.9 3.3-10l19.8-20.2-1.8-3.2L249.1 9c.1-.1.2-.1.3-.2.4-.1.7-.2 1.1-.2"/><path id="Path_285" class="st18" d="m245.3 22 29.3 63.7c2.2 4.6 3.4 9.7 3.6 14.8v79.6c0 3-2.1 4.2-4.7 2.7l-66.6-38.4c-2.8-1.8-4.5-4.8-4.7-8.1V56.7c0-4.6 1.3-8.3 3.6-10.7l29.3-29.8c2.5-2.6 7.7.4 10.2 5.8"/><path id="Path_286" class="st14" d="M275.6 184.4c.6 0 1.2-.1 1.7-.4 1.3-.8 2-2.3 1.8-3.8v-79.6c-.1-5.3-1.4-10.5-3.7-15.2l-29.3-63.7c-1.8-3.8-4.9-6.7-7.8-7.2-1.4-.3-2.8.1-3.8 1.1l-29.3 29.8c-2.5 2.6-3.9 6.5-3.9 11.4v79.6c.2 3.6 2.1 6.9 5.1 8.9l66.6 38.4c.8.4 1.7.7 2.6.7M237.4 16.2c.2 0 .4 0 .6.1 2.3.4 4.9 2.9 6.4 6.1l29.3 63.7c2.2 4.5 3.4 9.4 3.5 14.4v79.6c.3 1-.3 2.1-1.3 2.4-.7.2-1.4 0-1.9-.5l-66.6-38.4c-2.5-1.6-4-4.3-4.2-7.3V56.7c0-4.3 1.2-7.9 3.3-10l29.3-29.8c.4-.5 1-.8 1.6-.7"/><path id="Path_287" class="st15" d="m278.1 111.8-75.9-44-134.8 78.5 75.9 44 134.8-78.5"/><path id="Path_288" class="st14" d="m143.3 191.5.5-.3 135.3-78.8v-1.1l-.5-.3-76.4-44.3-.5.3-135.3 78.8v1.1l.5.3 76.4 44.3zm133-79.7-133 77.5-74-43 133-77.5 74 43z"/><path id="Path_289" class="st0" d="m264.4 112.1-63-36.6-121.1 71 63 36.6 121.1-71z"/><path id="Path_290" class="st14" d="m143.2 184.2 123-72.1-64.9-37.7-123 72.1 64.9 37.7zm119.3-72.1L143.3 182l-61.2-35.5 119.2-69.9 61.2 35.5z"/><path id="Path_291" class="st18" d="M201.3 75.6v73.5l63-36.9-63-36.6c0-.1 0-.1 0 0 0-.1 0 0 0 0"/><path id="Path_292" class="st14" d="m201.4 150.2.5-.3 63.4-37.2v-1.1l-.5-.3-63.5-36.8-1 .5V149.7l1.1.5zm61.1-38.1-60.2 35.3V77.2l60.2 34.9z"/><path id="Path_293" class="st11" d="M162.8 145.3c-28 12.7-35.2 34.5-16.1 48.6s57.3 15.3 85.3 2.6 35.2-34.5 16.1-48.6c-19.1-14.2-57.3-15.3-85.3-2.6"/><path id="Path_294" class="st0" d="M173.2 139.5c-25.7 11.7-32.3 31.7-14.8 44.6 17.6 13 52.6 14 78.4 2.4 25.7-11.7 32.3-31.7 14.8-44.6s-52.6-14.1-78.4-2.4"/><path id="Path_295" class="st2" d="M197.6 195.3c13.6.1 27.1-2.7 39.5-8.1 14.8-6.7 23.8-16.3 24.9-26.4.8-7.3-2.7-14-10-19.4-17.7-13.1-53.2-14.2-79.1-2.4-14.8 6.7-23.8 16.3-24.9 26.4-.8 7.3 2.7 14 10 19.4 9.5 6.9 24.1 10.5 39.6 10.5m14.9-63.2c15.1 0 29.4 3.5 38.7 10.3 6.9 5.1 10.2 11.4 9.4 18.1-1 9.6-9.8 18.8-24.1 25.3-25.5 11.6-60.3 10.5-77.6-2.3-6.9-5.1-10.2-11.4-9.4-18.1 1-9.6 9.8-18.8 24.1-25.3 12.2-5.3 25.5-8.1 38.9-8"/><path id="Path_296" class="st17" d="m171.6 139.8-12.7 20.7s-8.5 5.4-7.6 15.3c-7-11.9.7-26.4 20.3-36"/><path id="Path_297" class="st2" d="m152.3 178.9-.3-3.2c-.8-9.3 7.2-14.5 7.3-14.6l.2-.2 14-22.8-2.2 1.1c-11.9 5.8-19.8 13.6-22.4 21.9-1.6 5-.9 10.5 1.8 15.1l1.6 2.7zm6.1-18.9c-1 .7-7 5.1-7.8 12.7-1.4-3.6-1.5-7.5-.3-11.2 2.3-7.4 9.1-14.4 19.4-19.9L158.4 160z"/><path id="Path_298" class="st17" d="M253.4 175.4c4.9-7.4 4.8-16.9 0-24.2-2.6-4.1-2.5-7.1-1.1-9.4 12.4 9.5 12.2 22.7 1.1 33.6"/><path id="Path_299" class="st2" d="M253.9 175.9c5.9-5.8 8.9-12.3 8.5-18.7-.4-6-3.7-11.5-9.7-16l-.6-.5-.4.7c-1.7 2.9-1.3 6.3 1.1 10.1 4.8 7.1 4.8 16.3.1 23.4l1 1zm-1.5-33c5.2 4.2 8.1 9.2 8.5 14.5.3 4.5-1.2 9-4.4 13.4 2.4-6.7 1.4-14.1-2.5-19.9-2-3.1-2.5-5.8-1.6-8"/><path id="Path_300" class="st0" d="M159.7 154.5s11.4-45.7 50.9-47.9c38-2.1 47.6 44.2 47.6 44.2 2.5 9.8-4.9 20.5-20.9 27.5-22.6 9.9-53.8 8.4-69.6-3.3-8-5.8-10.5-13.3-8-20.5"/><path id="Path_301" class="st7" d="M206.8 165.3c-8.1-5.9-10.5-13.4-8-20.6 0 0 5.8-23.4 23.6-37.5 28.3 6.7 36 43.2 36 43.2 2.2 8.6-3.2 17.8-15.2 24.7-14.2 0-27.6-3.4-36.4-9.8"/><path id="Path_302" class="st2" d="M204.2 185.6c11.5.1 22.9-2.2 33.5-6.6 15.7-6.8 23.8-17.5 21.4-28l-.1-.3c-.1-.5-10.2-46.9-48.4-44.8-39.6 2.2-51.4 48-51.5 48.4-2.6 7.7.4 15.5 8.3 21.3 8.8 6.6 22.5 10 36.8 10m53.1-35.4.2.9c2.5 9.8-5.3 20.1-20.5 26.7-22.4 9.8-53.3 8.3-68.8-3.2-7.5-5.6-10.3-12.6-7.8-19.8l.3-1h-.1c1.9-6.4 14.5-44.5 50-46.4 34.2-1.9 45.2 36.5 46.7 42.8"/><path id="Path_303" d="M170.8 132.7c10.9-24.2 25.2-35.2 40-33.4 2 .3 4 .8 5.8 1.7l13.7 6.8.3 2.1-13.3-1.4-15.8 9-6.3 11.2-10.6 14.4-5.7 27.7-2.3 12.7c-.1 0-.1 0-.1.1l-13.1-9c-.7-.5-1.1-1.3-1.2-2.1-.3-4.5-.4-19.6 8.6-39.8" style="fill:#f0f0f0"/><path id="Path_304" class="st2" d="m176.4 184.4.7-.3.2-.4 2.3-12.7 5.6-27.5 10.5-14.3 6.2-11.1 15.4-8.8 14 1.5-.4-3.4-14-7c-1.9-.9-3.9-1.5-6-1.7-15.6-1.9-30.1 10.1-40.7 33.8-9.2 20.4-9 35.9-8.7 40.1.1 1.1.6 2.1 1.5 2.7l13.4 9.1zm40.7-76.6-16.2 9.2-6.4 11.4-10.6 14.6-5.7 27.7-2.2 11.8-12.3-8.4c-.5-.4-.8-.9-.9-1.6-.3-4.2-.4-19.3 8.6-39.4 10.4-23.1 24.3-34.8 39.3-33 1.9.2 3.8.8 5.6 1.6l13.3 6.6.1.8-12.6-1.3z"/><path id="Path_305" class="st0" d="m178.8 157.4 2.3 2.5-2.2 10.9-2.3 12.7c-.1 0-.1 0-.1.1l-13.1-9c-.7-.5-1.1-1.3-1.2-2.1-.2-3.3-.3-12.1 3.1-24.4l13.5 9.3z"/><path id="Path_306" class="st2" d="m176.3 184.4.7-.3.2-.4 2.3-12.7 2.3-11.3-2.7-2.9-14.4-9.9-.3 1c-3.5 12.5-3.4 21.4-3.1 24.7.1 1.1.6 2.1 1.5 2.7l13.5 9.1zm4.1-24.3-2.2 10.6-2.2 11.8-12.3-8.4c-.5-.4-.9-.9-.9-1.6-.2-3.1-.3-11.5 2.8-23.2l12.6 8.7 2.2 2.1z"/><path id="Path_307" class="st17" d="M241.3 118.6s-20.9-22-41.9 6.5-18.3 56.6-18.3 56.6l-4.4 2h-.1c-.2-1.7-2.1-20.7 8.3-43.8 10.9-24.2 25.2-35.2 40-33.4 17 2.1 26.9 27 26.9 27-2.9-5.5-6.4-10.5-10.5-14.9"/><path id="Path_308" class="st2" d="M176.6 184.3c.1 0 .2 0 .3-.1l4.9-2.2v-.5c0-.3-2.3-28.2 18.2-56.1 6.6-9 13.8-13.8 21.5-14.2 11-.7 19.2 7.8 19.2 7.9 4.1 4.4 7.5 9.3 10.3 14.5l1.3-.6c-.4-1-10.2-25.4-27.5-27.5-15.6-1.9-30.1 10.1-40.7 33.8-10.4 23.1-8.6 42.1-8.4 44.2v.4l.4.2c.3.2.4.2.5.2m3.8-3.1-3.2 1.4c-.4-4.3-1-21.7 8.3-42.6 10.4-23.1 24.3-34.8 39.3-33 7.1.9 13 6 17.4 11.5l-.4-.4c-.4-.4-8.8-9-20.4-8.3-8.1.5-15.7 5.5-22.6 14.8-19.2 26.3-18.6 52.6-18.4 56.6"/><path id="Rectangle_101" transform="rotate(-55.673 173.736 146.945)" class="st2" d="M173 138.8h1.4V155H173z"/><path id="Rectangle_102" transform="rotate(-64.15 213.34 102.655)" class="st2" d="M212.6 94.7h1.4v16h-1.4z"/><path id="Path_309" class="st4" d="m134.1 43.4 8.6-6.4c.1-.1.3-.1.4 0l33.8 19.2 7.3 3.1c1.1.5 2 1.4 2.6 2.4l.1.1 8.2 4.7.1.1L197 69c.1.2.1.4-.1.5l-8.8 6.6-.1.1c-.6.3-1.2.2-1.8-.1l-40.4-17.4c-1.8-.8-3.3-2-4.6-3.4l-6-6.5c-1.6-1.8-2.1-4-1.3-5l.2-.4z"/><path id="Path_310" class="st2" d="M134.1 48.6c.2.2.4.5.5.7l6 6.4c1.4 1.5 3 2.7 4.9 3.6l40.4 17.4c.8.4 1.7.4 2.4.1l.2-.1 8.8-6.6c.5-.4.6-1.1.2-1.6l-1.7-2.3-.3-.3-8.1-4.6c-.7-1.1-1.7-2.1-2.9-2.6l-7.3-3.1-33.7-19.2c-.4-.2-.9-.2-1.2.1l-8.7 6.4-.3.3c-1 1.2-.6 3.5.8 5.4m53.6 26.8c-.3.2-.5.2-1.3-.1L146 57.9c-1.7-.8-3.2-1.9-4.4-3.2l-6-6.5c-1.5-1.6-1.7-3.5-1.2-4.1l.2-.2 8.4-6.2 33.6 19.1L184 60c.9.5 1.7 1.2 2.3 2.1.1.2.2.3.4.4l8.2 4.6 1.4 1.9-8.6 6.4z"/><path id="Path_311" d="m143.3 36.9 16.4 9.3-15.3 11.4c-1.1-.7-2.1-1.6-3-2.5l-6-6.5c-1.6-1.8-2.1-4-1.3-5l.2-.3 8.6-6.4c.1-.1.3-.1.4 0" style="fill:#ab4a1a"/><path id="Path_312" class="st2" d="M134.2 48.5c.2.2.4.5.5.7l6 6.5c.9 1 2 1.9 3.2 2.7l.4.3L161 46.1l-17.3-9.9c-.4-.2-.9-.2-1.2.1l-8.6 6.4-.3.4c-1.1 1.2-.8 3.5.6 5.4m10.1 8.2c-.9-.6-1.7-1.3-2.5-2.1l-6-6.5c-1.5-1.6-1.7-3.5-1.2-4.1l.2-.2 8.3-6.2 15.2 8.6-14 10.5z"/><path id="Path_313" d="m194.8 66.4.4.2.1.1L197 69c.1.2.1.4-.1.5l-8.8 6.6-.1.1c-.6.3-1.2.2-1.8-.1l-2.8-1.2 11.4-8.5z" style="fill:#db9c17"/><path id="Path_314" class="st2" d="m181.9 75 3.9 1.7c.8.4 1.7.4 2.4.1l.2-.1 8.8-6.6c.5-.4.6-1.1.2-1.6l-1.7-2.3-.3-.3-.8-.5-12.7 9.6zm5.8.4c-.3.2-.5.2-1.3-.1l-1.6-.7 9.9-7.4 1.4 1.8-8.4 6.4z"/><path id="Path_315" d="m152.9 35.2 40.4 17.4c1.8.9 3.1 2.6 3.5 4.7l1.2 10c.2 1.8-1 2.7-2.7 2l-40.4-17.4c-1.8-.8-3.3-2-4.6-3.4l-6-6.5c-1.9-2.1-2.3-5-.6-5.5l5-1.7c1.3-.4 2.8-.2 4.2.4" style="fill:#f4e3cc"/><path id="Path_316" class="st4" d="m142.5 36.8.4-.1c1.4-.4 3-.2 4.3.4l40.4 17.4c1.8.9 3.1 2.6 3.5 4.7l1 8.5-37.5-16.2c-1.8-.8-3.3-2-4.6-3.4l-6-6.5c-1.6-1.6-2.1-3.7-1.5-4.8"/><path id="Path_317" class="st2" d="M143.1 41.9c.2.2.3.4.5.7l6 6.5c1.4 1.5 3 2.7 4.9 3.6L194.9 70c1.2.7 2.7.4 3.4-.8.4-.6.5-1.3.3-2l-1.2-10c-.4-2.3-1.8-4.2-3.9-5.3l-40.4-17.4c-1.5-.7-3.2-.9-4.8-.5l-5 1.7c-.7.3-1.3.9-1.5 1.6-.2 1.7.3 3.3 1.3 4.6M194.9 55c.5.7.9 1.5 1 2.4l1.2 10c.2.5 0 1.2-.5 1.4-.4.2-.8.1-1.1-.2l-40.4-17.4c-1.7-.8-3.2-1.9-4.4-3.2l-6-6.5c-1-1-1.5-2.3-1.4-3.7 0-.3.2-.5.5-.6l5-1.7c1.3-.3 2.6-.2 3.8.4L193 53.4c.8.4 1.4.9 1.9 1.6"/><path id="Path_318" class="st5" d="M162.2 61.5c1.6-1.1 3.5-1.4 5.4-.9l6.7 2.9c.6.2 1 .6 1.1 1.2l.1.5 12 102.3c0 .1 0 .1-.1.1l-14.1-1.8c-.1 0-.1 0-.1-.1L161.3 65.1l-.2-1.6c0-.8.4-1.6 1.1-2"/><path id="Path_319" class="st8" d="m164.6 66.4-.2-1.6c-.1-.7-.6-3.5.3-4.2 1.1-.8 3.6.9 4.9 1l4.7 2c.6.2 1 .6 1.1 1.2l.1.5 12 102.3c0 .1 0 .1-.1.1l-11-1.4-11.8-99.9z"/><path id="Path_320" class="st2" d="m172.4 166.5.7.2 14.5 1.8.3-.3c.2-.2.3-.4.3-.7l-12-102.8c-.1-.8-.7-1.5-1.5-1.8L168 60c-2.1-.7-4.3-.3-6.1.9-.9.6-1.5 1.6-1.4 2.7l.2 1.5 11.7 101.4zm14.2.4-12.8-1.6-11.9-101.9c0-.2-.1-.6.8-1.3 1.3-1 3.1-1.2 4.6-.8l6.7 2.9c.3.1.6.3.6.6l.1.5 11.9 101.6z"/><path id="Path_321" d="m174.2 167.4 6.7 2.9c1.8.6 3.8.3 5.4-.9 1.5-1.1 1.5-2.5 0-3.2l-6.7-2.9c-1.8-.6-3.8-.3-5.4.9-1.4 1.1-1.5 2.5 0 3.2" style="fill:#82cef0"/><path id="Path_322" class="st2" d="M172.8 167.2c.3.4.7.7 1.1.9l6.7 2.9c2.1.7 4.3.3 6.1-.9.9-.6 1.4-1.5 1.4-2.6-.1-.8-.7-1.6-1.5-1.8l-6.7-2.9c-2.1-.7-4.3-.3-6.1.9-.9.6-1.4 1.5-1.4 2.6 0 .3.2.6.4.9m1.7-.5c-.2-.1-.6-.3-.6-.6 0-.4.3-.8.8-1.2 1.3-1 3.1-1.2 4.6-.8l6.7 2.9c.2.1.6.3.6.6 0 .4-.3.8-.8 1.2-1.3 1-3.1 1.2-4.6.8l-6.7-2.9z"/><path id="Rectangle_103" transform="rotate(-6.536 170.306 112.06)" class="st2" d="M169.5 60.3h1.5v103.3h-1.5z"/><path id="Path_323" class="st7" d="m109.9 81 83 110.6c.3.4.8.5 1.3.5l16.2-2c.5-.1.6-.4.4-.7l-83-110.6c-.3-.4-.8-.5-1.3-.5l-16.2 2c-.5.1-.7.4-.4.7"/><path id="Path_324" class="st5" d="M193 191.4 111.7 83l13.6-1.6c.5-.1 1 .1 1.3.5l81.3 108.4-13.6 1.6c-.5 0-1-.2-1.3-.5"/><path id="Path_325" class="st4" d="m123 98.1-11.1-14.8 13.6-1.6c.5-.1 1 .1 1.3.5l10.6 14.1-14.4 1.8z"/><path id="Path_326" class="st8" d="m118 91.3-6.3-8.3 13.6-1.6c.5 0 1 .1 1.3.5l5.8 7.7-14.4 1.7z"/><path id="Path_327" d="m184.4 164.4 3.7-.4 17.7 23.6-13.6 1.6c-.5.1-1-.1-1.3-.5l-17.3-23.1c6.2-.7 10.6-1.2 10.8-1.2" style="fill:#edb43f"/><path id="Path_328" class="st2" d="M193.1 192.7c.4.2.8.2 1.2.2l16.2-2c.5 0 .9-.3 1.1-.7.2-.4.1-.8-.2-1.2l-83-110.6c-.5-.6-1.2-.9-2-.8l-16.2 2c-.5 0-.9.3-1.1.7-.2.4-.1.8.2 1.2l83 110.6c.2.3.5.5.8.6m16.8-3.2-15.8 1.9c-.2 0-.4-.1-.6-.2L110.9 81l15.8-1.9c.2 0 .4.1.6.2l82.6 110.2z"/><path id="Path_329" d="m186.2 166.7 3.7-.4 17.7 23.6-13.6 1.6c-.5.1-1-.1-1.3-.5l-17.3-23.1c6.2-.7 10.7-1.2 10.8-1.2" style="fill:#82cdef"/><path id="Rectangle_104" transform="rotate(-6.88 196.1 187.14)" class="st2" d="M190 186.6h12.2v1.1H190z"/><path id="Path_330" class="st2" d="m180.4 175.5 9-1.1-.1-1.1-9 1.1.1 1.1z"/><path id="Rectangle_105" transform="rotate(-6.892 187.365 177.787)" class="st2" d="M182.9 177.3h9v1.1h-9z"/><path id="Path_331" class="st2" d="m187.8 185.4 9-1.1-.1-1.1-9 1.1.1 1.1z"/><path id="Rectangle_106" transform="rotate(-6.88 189.806 181.022)" class="st2" d="M185.3 180.5h9v1.1h-9z"/><path id="Rectangle_107" transform="rotate(-6.88 177.416 164.507)" class="st2" d="M172.9 164h9v1.1h-9z"/><path id="Path_332" class="st2" d="m175.6 169.1 9-1.1-.1-1.1-9 1.1.1 1.1z"/><path id="Path_333" class="st2" d="m178 172.3 9-1.1-.1-1.1-9 1.1.1 1.1z"/><path id="Path_334" class="st2" d="m161.1 149.8 9-1.1-.1-1.1-9 1.1.1 1.1z"/><path id="Rectangle_108" transform="rotate(-6.892 168.099 152.102)" class="st2" d="M163.6 151.6h9v1.1h-9z"/><path id="Rectangle_109" transform="rotate(-6.892 172.915 158.524)" class="st2" d="M168.4 158h9v1.1h-9z"/><path id="Rectangle_110" transform="rotate(-6.892 170.508 155.314)" class="st2" d="M166 154.8h9v1.1h-9z"/><path id="Rectangle_111" transform="rotate(-6.88 158.13 138.86)" class="st2" d="M153.6 138.3h9v1.1h-9z"/><path id="Rectangle_112" transform="rotate(-6.892 160.701 142.243)" class="st2" d="M156.2 141.7h9v1.1h-9z"/><path id="Path_335" class="st2" d="m158.7 146.6 9-1.1-.1-1.1-9 1.1.1 1.1z"/><path id="Path_336" class="st2" d="m141.9 124.2 9-1.1-.1-1.1-9 1.1.1 1.1z"/><path id="Rectangle_113" transform="rotate(-6.892 148.89 126.494)" class="st2" d="M144.4 126h9v1.1h-9z"/><path id="Rectangle_114" transform="rotate(-6.892 153.706 132.916)" class="st2" d="M149.2 132.4h9v1.1h-9z"/><path id="Rectangle_115" transform="rotate(-6.88 151.322 129.722)" class="st2" d="M146.8 129.2h9v1.1h-9z"/><path id="Rectangle_116" transform="rotate(-6.88 138.923 113.244)" class="st2" d="M134.4 112.7h9v1.1h-9z"/><path id="Rectangle_117" transform="rotate(-6.892 141.492 116.634)" class="st2" d="M137 116.1h9v1.1h-9z"/><path id="Rectangle_118" transform="rotate(-6.892 143.901 119.844)" class="st2" d="M139.4 119.3h9v1.1h-9z"/><path id="Rectangle_119" transform="rotate(-6.892 126.87 97.141)" class="st2" d="M122.4 96.6h9v1.1h-9z"/><path id="Path_337" class="st2" d="m125.1 101.7 9-1.1-.1-1.1-9 1.1.1 1.1z"/><path id="Path_338" class="st2" d="m129.9 108.1 9-1.1-.1-1.1-9 1.1.1 1.1z"/><path id="Path_339" class="st2" d="m127.5 104.9 9-1.1-.1-1.1-9 1.1.1 1.1z"/><path id="Rectangle_120" transform="rotate(-6.892 119.474 87.28)" class="st2" d="M115 86.7h9v1.1h-9z"/><path id="Rectangle_121" transform="rotate(-6.892 122.054 90.72)" class="st2" d="M117.6 90.2h9v1.1h-9z"/><path id="Rectangle_122" transform="rotate(-6.892 124.462 93.93)" class="st2" d="M120 93.4h9v1.1h-9z"/><path id="Rectangle_123" transform="rotate(-6.88 157.435 135.595)" class="st2" d="M151.4 135h12.2v1.1h-12.2z"/><path id="Rectangle_124" transform="rotate(-6.88 176.64 161.27)" class="st2" d="M170.6 160.7h12.2v1.1h-12.2z"/><path id="Rectangle_125" transform="rotate(-6.88 137.993 109.678)" class="st2" d="M131.9 109.1h12.2v1.1h-12.2z"/><path id="Rectangle_126" transform="rotate(-6.88 118.76 84.08)" class="st2" d="M112.7 83.5h12.2v1.1h-12.2z"/><path id="Path_340" class="st0" d="m95.1 142.1-9.6-17.4 147.3-85.9c1.3-.8 3-.7 5 .5 4.2 2.7 6.8 7.2 7 12.2.1 1.7-.5 3.3-1.8 4.4l-.4.3-147.5 85.9z"/><path id="Path_341" class="st15" d="M231.5 43c1.3-.8 3-.7 5 .5 1.4.9 2.7 2 3.7 3.3L98 129.6l4 7.3-7.3 4.3-7.7-14L231.5 43z"/><path id="Path_342" class="st14" d="m94.7 143.4.8-.5 147.6-86 .5-.3c1.5-1.2 2.4-3.2 2.2-5.1-.2-5.3-3-10.1-7.5-13-1.5-1-3.4-1.3-5.1-.8v-.1l-.8.4-148.2 86.4 10.5 19zm140-104.1c.9 0 1.9.3 2.7.8 3.9 2.5 6.3 6.7 6.6 11.4.1 1.4-.4 2.7-1.4 3.6l-.4.3-146.8 85.4-8.7-15.8 145.8-84.9.8-.5c.4-.2.9-.3 1.4-.3"/><path id="Path_343" class="st0" d="m278.1 182.2-135.9 79.2 1-71 134.9-78.6v70.4"/><path id="Path_344" class="st14" d="m142.2 262.5.5-.3 136-79.2.4-.3v-71.4l-.9-.6-.5.3-135.4 78.8v.6l-1 71.5.9.6zm135-80.8-134 78.1 1-68.8 133-77.5v68.2z"/><path id="Path_345" class="st15" d="m277.6 111.9-13.3.2-121.1 71.1v7.3l134.4-78.3c.1 0 .1-.1 0-.2.1-.1.1-.2 0-.1"/><path id="Path_346" class="st14" d="m142.3 192 136.5-79.5-.1-.8c-.1-.5-.6-.8-1-.8l-13.6.3-.2.1-121.6 71.3v9.4zm132.2-79.2-130.3 75.9v-5.1L264.6 113l9.9-.2z"/><path id="Path_347" class="st0" d="m71.1 124.8 19.3-19.6-1.7-3.1c-.1-.2 0-.4.1-.5l12.1-7c.1-.1.2-.1.4-.2 2.7-1.4 7.1 1.5 9.3 6.4l29.3 63.7c2.2 4.6 3.4 9.7 3.6 14.8V259c.1 1-.3 2-1 2.7l-.1.1c-.2.1-.4.3-.6.3l-12.9 7.4c-.2.1-.5.1-.6-.2v-.1c-.5-1.8-2-7.6-4.1-16l-51.9-30c-2.8-1.8-4.5-4.8-4.7-8.1v-79.6c-.1-4.6 1.2-8.3 3.5-10.7"/><path id="Path_348" class="st15" d="M68.4 130.6 87.7 111l-1.7-3c-.1-.2 0-.4.1-.5l12.1-7c.1-.1.2-.1.4-.2 2.7-1.4 7.1 1.5 9.3 6.4l29.3 63.7c1.3 2.8 2.3 5.8 2.9 8.9l-2.7 1.6-37.3 22.3 19.9.7c-2.3 2.4-3.6 6.1-3.6 10.7v41.6L69.5 229c-2.8-1.8-4.5-4.8-4.7-8.1v-79.6c0-4.6 1.2-8.3 3.6-10.7"/><path id="Path_349" class="st14" d="M128.6 270.5c.2 0 .5-.1.7-.2l12.9-7.4c.3-.1.5-.2.7-.4 1-.9 1.5-2.2 1.5-3.5v-79.6c-.1-5.3-1.4-10.5-3.7-15.2l-29.3-63.7c-1.6-3.4-4.2-6-6.8-7-1.2-.5-2.6-.4-3.8.1-.2.1-.3.2-.5.3l-12 7c-.6.4-.8 1.2-.5 1.8l1.4 2.4-18.8 19.1c-2.5 2.6-3.9 6.5-3.9 11.4v79.6c.2 3.6 2.1 6.9 5.1 8.9l51.5 29.7 4 15.6c.3.7.9 1.1 1.5 1.1M102.7 95c.4 0 .8.1 1.2.2 2.2.7 4.4 3.1 5.7 6l29.3 63.7c2.2 4.5 3.4 9.4 3.5 14.4V259c.1.7-.2 1.5-.7 2-.1.1-.2.2-.4.2l-12.5 7.1-4-15.8-52.2-30.1c-2.5-1.6-4-4.3-4.2-7.3v-79.6c0-4.3 1.2-7.9 3.3-10l19.8-20.2-1.8-3.2 11.6-6.7c.1-.1.2-.1.3-.2.4-.1.7-.2 1.1-.2"/><path id="Path_350" class="st18" d="m97.5 108.4 29.3 63.7c2.2 4.6 3.4 9.7 3.6 14.8v79.6c0 3-2.1 4.2-4.7 2.7l-66.6-38.4c-2.8-1.8-4.5-4.8-4.7-8.1v-79.6c0-4.6 1.3-8.3 3.6-10.7l29.3-29.8c2.6-2.6 7.7.4 10.2 5.8"/><path id="Path_351" class="st14" d="M127.8 270.8c.6 0 1.2-.1 1.7-.4 1.3-.8 2-2.3 1.8-3.8V187c-.1-5.3-1.4-10.5-3.7-15.2L98.3 108c-1.8-3.8-4.9-6.7-7.8-7.2-1.4-.3-2.8.1-3.8 1.1l-29.3 29.8c-2.5 2.6-3.9 6.5-3.9 11.4v79.6c.2 3.6 2.1 6.9 5.1 8.9l66.6 38.4c.8.5 1.7.8 2.6.8M89.6 102.6c.2 0 .4 0 .6.1 2.3.4 4.9 2.9 6.4 6.1l29.3 63.7c2.2 4.5 3.4 9.4 3.5 14.4v79.6c.3 1-.3 2.1-1.3 2.4-.7.2-1.4 0-1.9-.5L59.6 230c-2.5-1.6-4-4.3-4.2-7.3v-79.6c0-4.3 1.2-7.9 3.3-10L88 103.2c.5-.4 1-.7 1.6-.6"/><path id="Path_352" d="M83.1 129.4c.3 5 2.9 9.5 7 12.2 3.9 2.2 7 .4 7-4.1-.3-5-2.9-9.5-7-12.2-3.9-2.2-7-.4-7 4.1" style="fill:#a1a1a1"/><path id="Path_353" class="st9" d="M87 127.3c.3 4.9 2.9 9.5 7 12.2 3.9 2.2 7 .4 7-4.1-.3-5-2.9-9.5-7-12.2-3.9-2.2-7-.4-7 4.1"/><path id="Path_354" class="st14" d="M93.2 143.5c.8 0 1.6-.2 2.3-.6 1.6-.9 2.5-2.9 2.5-5.4-.3-5.3-3-10.1-7.5-13-2.2-1.3-4.3-1.4-5.9-.5s-2.5 2.9-2.5 5.4c.3 5.3 3 10.1 7.5 13 1.1.7 2.4 1.1 3.6 1.1M87 125.4c.9 0 1.9.3 2.7.8 3.9 2.5 6.3 6.7 6.6 11.4 0 1.8-.6 3.1-1.6 3.7-1 .6-2.5.4-4-.5-3.9-2.5-6.3-6.7-6.6-11.4 0-1.8.6-3.1 1.6-3.7.3-.2.8-.4 1.3-.3"/><path id="Path_355" class="st5" d="M176 266.7c-17.6 10.2-17.6 26.6 0 36.8s46.1 10.2 63.7 0 17.6-26.6 0-36.8-46.1-10.1-63.7 0"/><path id="Path_356" class="st9" d="M174.9 210.1h75.3v69.2c0 5.6-3.7 11.1-11 15.4-14.7 8.5-38.5 8.5-53.2 0-7.3-4.2-11-9.8-11-15.4l-.1-69.2z"/><path id="Path_357" class="st2" d="M212.5 301.7c9.8 0 19.5-2.1 27-6.4 7.3-4.2 11.4-9.9 11.4-16v-69.9h-76.8v69.9c0 6.1 4 11.8 11.4 16 7.5 4.3 17.3 6.4 27 6.4m36.9-90.8v68.4c0 5.5-3.8 10.8-10.6 14.7-14.5 8.4-38 8.4-52.5 0-6.9-4-10.6-9.2-10.6-14.7v-68.4h73.7z"/><path id="Rectangle_127" class="st2" d="M244.6 220.8h1.5v69.1h-1.5z"/><path id="Rectangle_128" class="st2" d="M181.9 223.3h1.5v69.2h-1.5z"/><path id="Rectangle_129" class="st2" d="M185.6 225.7h1.5v69.2h-1.5z"/><path id="Rectangle_130" class="st2" d="M194.4 229.5h1.5v69.2h-1.5z"/><path id="Path_358" class="st16" d="M185.9 194.8c-14.7 8.5-14.7 22.2 0 30.7s38.5 8.5 53.2 0c14.7-8.5 14.7-22.2 0-30.7s-38.5-8.5-53.2 0"/><path id="Path_359" class="st2" d="M212.5 232.9c9.8 0 19.7-2.2 27.2-6.5s11.6-10.1 11.6-16.3c0-6.2-4.1-12-11.6-16.3-15-8.7-39.4-8.6-54.3 0-7.5 4.3-11.6 10.1-11.6 16.3 0 6.2 4.1 12 11.6 16.3 7.5 4.4 17.3 6.5 27.1 6.5m0-43.4c9.4 0 18.9 2.1 26.1 6.2 6.7 3.9 10.5 9 10.5 14.4s-3.7 10.5-10.5 14.4c-14.4 8.3-37.7 8.3-52.1 0-6.7-3.9-10.5-9-10.5-14.4s3.7-10.5 10.5-14.4c7.2-4.1 16.6-6.2 26-6.2"/><path id="Path_360" class="st8" d="M190.4 197.4c-12.2 7.1-12.2 18.5 0 25.6 12.2 7.1 32 7.1 44.3 0s12.2-18.5 0-25.6c-12.3-7.1-32.1-7.1-44.3 0"/><path id="Path_361" class="st2" d="M212.5 228.9c8.1 0 16.3-1.8 22.5-5.4 6.2-3.6 9.5-8.3 9.5-13.4s-3.4-9.9-9.5-13.4c-12.4-7.2-32.6-7.2-45 0-6.1 3.6-9.5 8.3-9.5 13.4s3.4 9.9 9.5 13.4c6.2 3.6 14.4 5.4 22.5 5.4m0-36.1c7.9 0 15.8 1.7 21.8 5.2 5.7 3.3 8.8 7.6 8.8 12.1s-3.1 8.9-8.8 12.1c-12 6.9-31.5 6.9-43.5 0-5.7-3.3-8.8-7.6-8.8-12.1s3.1-8.9 8.8-12.1c6-3.5 13.9-5.2 21.7-5.2"/><path id="Path_362" class="st7" d="M208.7 210.9c-2.1 1.2-2.1 3.2 0 4.5 2.4 1.2 5.3 1.2 7.8 0 2.1-1.2 2.1-3.2 0-4.5-2.5-1.3-5.4-1.3-7.8 0"/><path id="Path_363" class="st2" d="M212.5 214c1.5 0 2.9-.3 4.2-1 1.6-.6 2.4-2.4 1.8-4-.3-.8-1-1.5-1.8-1.8-2.7-1.4-5.8-1.4-8.5 0-1.6.6-2.4 2.4-1.8 4 .3.8 1 1.5 1.8 1.8 1.4.7 2.8 1.1 4.3 1m0-6.3c1.2 0 2.4.3 3.5.8.9.2 1.4 1.1 1.2 2-.2.6-.6 1-1.2 1.2-2.2 1.1-4.8 1.1-7 0-.9-.2-1.4-1.1-1.2-2 .2-.6.6-1 1.2-1.2 1.1-.5 2.3-.8 3.5-.8"/><path id="Path_364" class="st17" d="M234.7 201.2c-12.2-7.1-32-7.1-44.3 0-5.2 3-8.2 6.8-8.9 10.7-.9-5.2 2.1-10.5 9-14.5 12.2-7.1 32-7.1 44.3 0 6.9 4 9.9 9.3 9 14.5-1-3.9-4-7.7-9.1-10.7"/><path id="Path_365" class="st2" d="M243.7 212.6h.6l.1-.6c1-5.7-2.5-11.3-9.4-15.3-12.4-7.2-32.6-7.2-45 0-6.9 4-10.3 9.6-9.4 15.3l.1.6h1.3l.2-.6c.8-3.9 3.7-7.4 8.6-10.2 12-6.9 31.5-6.9 43.5 0 4.8 2.8 7.8 6.3 8.6 10.2l.1.6h.7zm-31.2-17.4c-8.2 0-16.3 1.8-22.5 5.4-3.2 1.7-5.8 4.2-7.8 7.2.9-3.6 3.8-7 8.5-9.7 12-6.9 31.5-6.9 43.5 0 4.6 2.7 7.6 6.1 8.5 9.7-1.9-3-4.6-5.5-7.7-7.2-6.2-3.6-14.3-5.4-22.5-5.4"/><path id="Path_366" class="st5" d="m258.6 227.4 45.6 26.3c1.6.9 3.5.9 5.1 0l45.6-26.3c1-.6 1.4-1.9.8-2.9-.2-.3-.5-.6-.8-.8l-47.1-27.2c-.7-.4-1.5-.4-2.1 0l-47.1 27.2c-1 .6-1.4 1.9-.8 2.9.2.4.5.6.8.8"/><path id="Path_367" class="st9" d="m262.4 207.9 48 27.7 48-27.7-48-27.7-48 27.7z"/><path id="Path_368" class="st9" d="M358.4 207.9v11.3l-48 27.7v-11.3l48-27.7z"/><path id="Path_369" class="st11" d="M262.4 207.9v11.3l48 27.7v-11.3l-48-27.7z"/><path id="Path_370" class="st2" d="m261.7 207.5.7-.4 48-27.7 48 27.7.7.4v12.1l-48 27.7-.7.4-.7-.4-47.7-27.5-.3-.2v-12.1zm48.7-26.5-46.6 26.9 21.7 12.5 24.9 14.4 46.6-26.9-46.6-26.9zm47.3 37.8v-9.7L311.1 236v9.7l46.6-26.9zm-94.6 0 46.6 26.9V236l-46.6-26.9v9.7z"/><path id="Path_371" class="st9" d="m310.4 180.2 30.2 17.5c4.7 2.8 10.5 2.6 15-.4.9 8.8-8.3 16.4-12.1 19.1-.4.4-.9.7-1.4 1l-31.8 18.3-48-27.7 48.1-27.8z"/><path id="Path_372" class="st7" d="m341.9 217.3-31.8 18.3-43.1-24.9 42.8-24.7 30.2 17.5c4.4 2.7 10 2.7 14.4 0-2.3 6-8.3 10.8-11.2 12.9-.4.3-.8.6-1.3.9"/><path id="Path_373" class="st2" d="m310.4 236.4 32.1-18.5c.5-.3 1-.6 1.5-1 4-2.9 13.3-10.5 12.4-19.7l-.1-1.2-1 .7c-4.3 2.9-9.9 3.1-14.3.4l-30.6-17.7-48 27.7c-.5.3-.6.8-.3 1.3.1.1.2.3.3.3l48 27.7zm44.6-38c0 7.9-8.2 14.7-11.9 17.3-.4.3-.9.7-1.3.9l-31.4 18.1-46.6-26.9 46.6-26.9 29.9 17.3c4.5 2.7 10.1 2.8 14.7.2"/><path id="Path_374" class="st2" d="M305.4 190.8c1.1 0 2.3-.3 3.3-.8 1.3-.5 1.9-1.9 1.4-3.2-.3-.6-.8-1.1-1.4-1.4l-10.8-6.2c-2.7-1.4-5.8-1.4-8.5 0-1.6.6-2.4 2.4-1.8 3.9.3.8 1 1.5 1.8 1.8l6.9 4 .7-1.2-6.9-4c-.9-.2-1.5-1.2-1.2-2.1.2-.6.6-1.1 1.2-1.2 2.2-1.1 4.9-1.1 7.1 0l10.8 6.2c.6.3.9.7.9 1.1s-.3.8-.9 1.1c-1.6.8-3.6.8-5.2 0l-9.7-5.6-.7 1.2 9.7 5.6c1 .6 2.1.9 3.3.8"/><path id="Path_375" class="st2" d="m310.7 239.5 48-27.1-.7-.8-48 27.1.7.8z"/><path id="Path_376" class="st2" d="m310.7 243.9 48-27.6-.7-.8-48 27.6.7.8z"/><path id="Path_377" class="st2" d="M310 239.9v-1.2l-47.3-27.1v1.2l47.3 27.1z"/><path id="Path_378" class="st2" d="M310 243.6v-1.2l-47.3-27.1v1.2l47.3 27.1z"/><path id="Path_379" class="st5" d="M244.8 332c0-.5.3-.9.7-1.1l.3-.3c4.1-1.7 36-15.1 54.7-29.8v-6.4L298 293c-1.3-.6-2.1-1.8-2.2-3.2v-14.6l-4.1-2.4c-1.6-.8-2.6-2.8-2.6-5.5 0-1.1.2-2.2.4-3.3l-.2-.1c-1.2-.6-1.8-2-1.8-3.8 0-3.1 1.9-6.6 4.2-8l8.2-4.8c1-.6 2.2-.7 3.2-.2l3.3 2 1.4-.8c1.3-.9 3.1-1 4.5-.3l5 3 4.3-2.5c3-1.6 6.6-1.6 9.6 0l10.7 6.2c.9.4 2 .4 2.9 0 1.4-.7 3-.7 4.4 0l1.6.9c2.8-1.4 6.7-1.5 9.1-.2l27.6 15.9c.6.4 1.2.9 1.5 1.5h.3v.7c.1.2.1.4.1.6 0 .2 0 .3-.1.5v3.1l3.3 1.9c.9.4 1.4 1.5 1 2.4-.2.4-.5.8-1 1-.3.1-.4.3-.4.4 0 .1.1.2.4.4l44.5 25.7c1.5.7 2.5 2.1 2.6 3.8V323l8.4 5.1h.1c.1 0 .1.1.2.1 1.5 1 2.4 3.1 2.4 5.7 0 1.7-.3 3.4-.9 5l.7.7c.9.7 1.3 1.9 1.2 3 0 .4 0 .7-.1 1.1l17 9.4c1.6.9 2.2 3 1.3 4.6-.4.8-1.2 1.4-2 1.6-.3.1-.6.1-.9.1-.6 0-1.1-.1-1.6-.4l-17.2-9.5-.9.6c-.6.4-1.4.6-2.2.6-.4 0-.7-.1-1.1-.2l-4.5-1.2-9.4 5.4c-.9.5-1.9.8-2.9.9-.5 0-.9-.1-1.4-.3l-.1.1-.6-.3h-.1l-5.6-3.4-4.4 2.5c-3.6 1.9-7.9 1.9-11.5 0l-34.6-20c-1 .2-2.1.3-3.2.3-2.8 0-5.5-.6-7.9-1.9l-3.9-2.3c-1 .2-1.9.6-2.7 1.1-4.5 2.3-9.8 2.3-14.3 0l-4.2-2.4c-3.8 5.9-13.9 18.7-37.5 34-3.8 2.4-8.1 3.7-12.6 3.7-4.2 0-8.3-1.1-12-3.3l-26.1-15.3.2-16.1z"/><path id="Path_380" class="st5" d="M298.1 257.7c0-4.3 2.6-9.3 5.9-11.2l12.6-7.3c1.1-.8 2.5-.9 3.8-.3l10 6v.1l-20 23.5h-.1l-9.9-6c-1.4-.7-2.3-2.4-2.3-4.8"/><path id="Path_381" class="st2" d="m310.4 269.5.5-.5 20.3-23.8-.1-.7-.3-.2-10-6c-1.5-.7-3.2-.6-4.5.3l-12.6 7.3c-3.5 2-6.2 7.2-6.2 11.8 0 2.7.9 4.7 2.6 5.5l10.3 6.3zm18.8-24.4-19.1 22.4-9.4-5.7c-1.2-.6-1.8-2.1-1.8-4.2 0-4.1 2.5-8.8 5.5-10.5l12.6-7.3c.9-.6 2-.8 3-.3l9.2 5.6z"/><path id="Path_382" class="st0" d="m396.9 263.9.1 9.8s0 .1-.1.1l-13.3-6.5v-.1l5.3-3.4 8 .1"/><path id="Path_383" class="st2" d="m397 274.7.8-.4v-9.8l-.9-1.3h-8.1l-.2.1-5.6 3.6v.9l.4.3 13.6 6.6zm-.8-10.1.1 8-11.1-5.4 4-2.6h7z"/><path id="Path_384" class="st2" d="m401.3 282.4.8-.4v-10.4l-.9-.8h-8.1l-.2.1-5.6 3.6v.9l.4.3 13.6 6.7zm-.8-10.1.1 8-11.1-5.4 4-2.6h7z"/><path id="Path_385" class="st27" d="m304.7 255.7 10.8-.4 5.6 10.9 9.3-5.4c2.8-1.4 6.1-1.4 8.9 0L350 267c1.1.6 2.5.6 3.6 0s2.5-.6 3.6 0l43.4 25c.6.2.9.8.7 1.4-.1.3-.4.6-.7.7-.6.2-.9.8-.7 1.4.1.3.4.6.7.7l23.6 13.6 3.7-5.9h19.5v24.2c-.1 1.4-1 2.6-2.2 3.1l-21.9 12.7c-3.4 1.7-7.4 1.7-10.8 0L373 321.1c-4.3-2.2-9.3-2.2-13.6 0-4.3 2.2-9.3 2.2-13.6 0l-33.4-19.3c-3.8-2.2-3.8-5.7 0-7.8s3.8-5.7 0-7.8l-5.7-3.3c-1-.5-1.7-1.4-1.8-2.6l-.2-24.6z"/><path id="Path_386" class="st2" d="M417.8 346c2 0 4-.4 5.8-1.4l21.9-12.7c1.5-.7 2.5-2.1 2.6-3.8v-24.9h-20.6l-3.5 5.7-23-13.3c-.3-.1-.4-.3-.4-.4s.1-.2.4-.4c.9-.4 1.4-1.5 1-2.4-.2-.4-.5-.8-1-1l-43.4-25c-1.4-.7-3-.7-4.4 0-.9.4-2 .4-2.9 0l-10.7-6.2c-3-1.6-6.6-1.6-9.6 0l-8.6 5-5.4-10.6-12 .4v25.3c.1 1.4.9 2.6 2.2 3.2l5.7 3.3c1.6.9 2.4 2.1 2.4 3.3s-.9 2.4-2.4 3.3c-2.1 1.2-3.2 2.8-3.2 4.6 0 1.8 1.1 3.4 3.2 4.6l33.4 19.3c4.5 2.3 9.8 2.3 14.3 0 4-2 8.8-2 12.8 0l39.5 22.8c1.9.8 3.9 1.3 5.9 1.3m28.8-41.3v23.4c-.1 1.1-.8 2-1.9 2.5l-21.9 12.7c-3.2 1.6-6.9 1.6-10 0l-39.5-22.8c-4.5-2.3-9.8-2.3-14.3 0-4 2-8.8 2-12.8 0l-33.4-19.3c-1.6-.9-2.4-2.1-2.4-3.3s.9-2.4 2.4-3.3c2.1-1.2 3.2-2.8 3.2-4.6s-1.1-3.4-3.2-4.6l-5.7-3.3c-.8-.3-1.3-1.1-1.5-1.9v-23.8l9.6-.3 5.7 11.2 10-5.8c2.6-1.3 5.6-1.3 8.1 0l10.7 6.2c1.4.7 3 .7 4.4 0 .9-.4 2-.4 2.9 0l43.4 25.1c.3.1.4.3.4.4s-.1.2-.4.4c-.9.4-1.4 1.5-1 2.4.2.4.5.8 1 1l24.2 14 3.8-6.2 18.2-.1z"/><path id="Path_387" d="M309.5 273.1V298l11.6-1.6-11.6-23.3z" style="fill:#d7d7d7"/><path id="Path_388" class="st2" d="m308.8 299 12.5-1.7-.2-1.5-10.8 1.5v-24.1h-1.5V299z"/><path id="Path_389" class="st3" d="m339.3 239.4 10.7 6.2c1.1.6 2.5.6 3.6 0s2.5-.6 3.6 0l43.4 25c.6.2.9.8.7 1.4-.1.3-.4.6-.7.7-.6.2-.9.8-.7 1.4.1.3.4.6.7.7l44.5 25.7c3 1.7 3 4.5 0 6.2l-21.9 12.7c-3.4 1.7-7.4 1.7-10.8 0l-39.5-22.8c-4.3-2.2-9.3-2.2-13.6 0-4.3 2.2-9.3 2.2-13.6 0l-33.4-19.3c-3.7-2.2-3.7-5.7 0-7.8 3.7-2.2 3.8-5.7 0-7.8l-5.7-3.3c-2.5-1.4-2.5-3.7 0-5.1l23.8-13.8c2.8-1.5 6.1-1.5 8.9-.1"/><path id="Path_390" class="st2" d="M417.8 321.4c2 0 4-.4 5.8-1.4l21.9-12.7c2.1-.8 3.1-3.1 2.4-5.2-.4-1.1-1.3-1.9-2.4-2.4L401 274.1c-.3-.1-.4-.3-.4-.4s.1-.2.4-.4c.9-.4 1.4-1.5 1-2.4-.2-.4-.5-.8-1-1l-43.4-25.1c-1.4-.7-3-.7-4.4 0-.9.4-2 .4-2.9 0l-10.7-6.2c-3-1.6-6.6-1.6-9.6 0l-23.8 13.8c-1.8.7-2.7 2.7-2 4.4.3.9 1.1 1.6 2 2l5.7 3.3c1.6.9 2.4 2.1 2.4 3.3s-.9 2.4-2.4 3.3c-2.1 1.2-3.2 2.8-3.2 4.6 0 1.8 1.1 3.4 3.2 4.6l33.4 19.3c4.5 2.3 9.8 2.3 14.3 0 4-2 8.8-2 12.8 0L412 320c1.8 1 3.8 1.4 5.8 1.4m-62.4-75.5c.5 0 1 .1 1.4.3l43.4 25c.3.1.4.3.4.4s-.1.2-.4.4c-.9.4-1.4 1.5-1 2.4.2.4.5.8 1 1l44.5 25.7c1.4.4 2.1 1.8 1.8 3.2-.2.8-.9 1.5-1.8 1.8l-21.9 12.7c-3.2 1.6-6.9 1.6-10 0L373.3 296c-4.5-2.3-9.8-2.3-14.3 0-4 2-8.8 2-12.8 0l-33.4-19.3c-1.6-.9-2.4-2.1-2.4-3.3s.9-2.4 2.4-3.3c2.1-1.2 3.2-2.8 3.2-4.6s-1.1-3.4-3.2-4.6l-5.7-3.3c-1.1-.3-1.7-1.4-1.4-2.4.2-.7.7-1.2 1.4-1.4l23.8-13.8c2.6-1.3 5.6-1.3 8.1 0l10.7 6.2c1.4.7 3 .7 4.4 0 .3-.2.8-.3 1.3-.3"/><path id="Path_391" class="st12" d="m346.7 268.3-17.4-10.1c-1.6-.9-1.6-2.4 0-3.3l11.3-6.5c1.8-.9 4-.9 5.8 0l27.7 16c1.6.9 1.6 2.4 0 3.3l-17.1 9.9c-1.8.9-4 .9-5.8 0l-4.4-2.6c-1.6-.9-1.6-2.4 0-3.3s1.4-2.5-.1-3.4"/><path id="Path_392" class="st2" d="M354 279c1.1 0 2.3-.3 3.3-.8l17.1-9.9c1.3-.5 1.9-2 1.4-3.2-.3-.6-.8-1.2-1.4-1.4l-27.7-16c-2.1-1.1-4.5-1.1-6.5 0l-11.3 6.5c-1.3.5-1.9 2-1.4 3.2.3.6.8 1.2 1.4 1.4l17.4 10.1c.5.3.8.7.8 1s-.3.7-.8 1c-1.3.5-1.9 2-1.4 3.2.3.6.8 1.2 1.4 1.4l4.4 2.6c1 .6 2.1.9 3.3.9m-10.6-30.6c.9 0 1.7.2 2.5.6l27.7 16c.5.3.8.7.8 1 0 .3-.3.7-.8 1l-17.1 9.9c-1.6.8-3.4.8-5 0l-4.4-2.6c-.5-.3-.8-.7-.8-1 0-.3.3-.7.8-1 1.3-.5 1.9-2 1.4-3.3-.3-.6-.8-1.1-1.4-1.4l-17.4-10.1c-.5-.3-.8-.7-.8-1 0-.3.3-.7.8-1L341 249c.7-.4 1.6-.6 2.4-.6"/><path id="Path_393" class="st8" d="m374 267.6-.9.5-26.8-15.4c-1.8-.9-4-.9-5.8 0l-10.4 6-.9-.5c-1.6-.9-1.6-2.4 0-3.3l11.3-6.5c1.8-.9 4-.9 5.8 0l27.7 16c1.6.8 1.6 2.3 0 3.2"/><path id="Path_394" class="st2" d="m373.1 269 1.3-.7c1.3-.5 1.9-2 1.4-3.2-.3-.6-.8-1.2-1.4-1.4l-27.7-16c-2.1-1.1-4.5-1.1-6.5 0l-11.3 6.5c-1.3.5-1.9 2-1.4 3.2.3.6.8 1.2 1.4 1.4l1.3.7 10.8-6.2c1.6-.8 3.4-.8 5 0l27.1 15.7zm-29.7-20.6c.9 0 1.7.2 2.5.6l27.7 16c.5.3.8.7.8 1 0 .3-.3.7-.8 1l-.5.3-26.4-15.2c-2.1-1.1-4.5-1.1-6.5 0l-10 5.8-.5-.3c-.5-.3-.8-.7-.8-1 0-.3.3-.7.8-1l11.3-6.5c.7-.5 1.5-.7 2.4-.7"/><path id="Path_395" class="st13" d="M347.7 269.3c1.3.7 1 6.1-.3 6.1l-.7-.4c-1.3-.7-1.5-1.8-.7-2.7l1.7-3z"/><path id="Path_396" class="st2" d="M347.2 276.1h.2c.5 0 1.2-.3 1.6-1.7.4-1.6.5-5-.9-5.8l-.6-.4-2.1 3.6c-.4.5-.6 1.2-.5 1.8.2.9.8 1.6 1.5 2l.8.5zm.4-5.3c0 .3.1.6.1.8.1 1 0 1.9-.4 2.8l-.3-.2c-.4-.2-.7-.5-.8-.9 0-.3.1-.5.2-.7l1.2-1.8z"/><path id="Path_397" class="st5" d="m359.2 246.7 35.7 20.6c2.6-1.5 2.9-3.7.6-5l-27.6-15.9c-2.2-1.3-6.1-1.2-8.7.3"/><path id="Path_398" class="st2" d="m394.9 268.2.4-.2c1.4-.6 2.4-2 2.5-3.5-.1-1.2-.8-2.3-1.9-2.8l-27.6-15.9c-2.5-1.4-6.6-1.3-9.5.4l-1.1.7 37.2 21.3zm-30.8-22c1.2 0 2.3.2 3.4.8l27.6 15.9c.6.3 1 .9 1.1 1.5-.1.8-.6 1.6-1.4 2l-34-19.6c1.1-.4 2.2-.6 3.3-.6"/><path id="Path_399" class="st5" d="m357.2 303.4 10.3 7.1 7 1.5 8.2-3.1 1.4-.6 2.1.6c.1 0 .1.1.1.2v10.7l-4.6 2.6c-4.7 2.4-10.3 2.4-15 0l-13.4-7.7V304c0-.1.1-.1.2-.1l3.7-.5z"/><path id="Path_400" class="st2" d="M374.2 324.9c2.8 0 5.5-.6 7.9-1.9l5-2.8V309c0-.4-.3-.8-.7-.9l-2.3-.6-1.7.7-8 3-6.6-1.4-10.4-7.1-3.7.4-.2-.1-.5.2c-.3.2-.4.5-.4.8v11l13.7 7.9c2.5 1.4 5.2 2 7.9 2m11.4-5.6-4.2 2.4c-4.5 2.3-9.8 2.3-14.3 0l-13-7.5v-9.6l2.9-.3 10.3 7 7.2 1.5 9.6-3.6 1.4.4.1 9.7z"/><path id="Path_401" class="st8" d="M374.2 313.3c2.6 0 5.2-.6 7.5-1.8l4.5-2.6v-.1l-3-1.7-3 1.7c-3.8 1.9-8.2 1.9-12 0l-9.6-5.5-5.1.5 13.3 7.7c2.2 1.2 4.8 1.9 7.4 1.8"/><path id="Path_402" class="st2" d="M374.2 314.1c2.8 0 5.5-.6 7.9-1.9l4.9-2.8v-.9l-.4-.3-3.4-2-.4.2-3 1.7c-3.5 1.8-7.7 1.8-11.2 0l-9.8-5.7h-.3l-5.7.5-.2 1.2 13.7 7.9c2.5 1.5 5.2 2.1 7.9 2.1m10.6-5.2-3.4 1.9c-4.5 2.3-9.8 2.3-14.3 0l-11.3-6.5 2.7-.2 9.4 5.4c4 2 8.7 2 12.7 0l2.6-1.5 1.6.9z"/><path id="Path_403" class="st5" d="m317.3 297.9 12.7 7.3 12.5-6v16.3c0 .1-6.8 16.2-39.2 37.1-7.2 4.6-16.4 4.8-23.8.4l-25.7-15v-15.5c0-.2.2-.4.4-.4 4.5-.7 47.4-6.9 63.1-24.2"/><path id="Path_404" class="st2" d="M291.1 357c4.5 0 8.9-1.3 12.6-3.7 32.5-21 39.4-37.3 39.5-37.5l.1-.3v-16.7l-.8-.4-.4.2-12.1 5.8-12.9-7.4-.4.4c-15.4 17-57.8 23.2-62.6 23.9-.6.1-1 .6-1 1.2v15.9l26.1 15.3c3.5 2.2 7.6 3.3 11.9 3.3m50.6-41.7c-.7 1.6-8.5 17.1-38.8 36.7-7 4.5-15.9 4.7-23 .4l-25.3-14.9v-14.8c5.9-.8 47-7.1 62.8-23.9l12.4 7.1.5-.1 11.4-5.5v15z"/><path id="Path_405" class="st8" d="M342.4 299.2c-.1.3-7 16.4-39.3 37.2-7.1 4.6-16.3 4.8-23.6.5l-25.2-14.6c-.2-.1-.2-.3-.1-.4 0-.1.1-.1.2-.1 5.5-2.3 47.3-19.9 62.9-37.1l25.1 14.5"/><path id="Path_406" class="st2" d="M290.9 340.8c4.5 0 8.9-1.3 12.6-3.7 32.3-20.8 39.3-36.9 39.6-37.6l.1-.3-.3-.6-.3-.1-25.6-14.8-.4.5c-15.5 17.1-57.8 34.9-62.6 36.9-.5.2-.8.8-.6 1.4.1.2.3.4.5.5l25.2 14.6c3.6 2.1 7.7 3.2 11.8 3.2m50.6-41.3c-1.6 3.1-10.2 17.9-38.7 36.3-6.9 4.4-15.7 4.6-22.8.5l-24.5-14.1c7.5-3.2 46.6-20 61.9-36.6l24.1 13.9z"/><path id="Path_407" class="st2" d="M285.2 323.4c1.9 0 3.7-.5 5.3-1.4l9.1-5.2c1.7-.8 2.8-2.5 3-4.4 0-1.6-1-3.1-2.4-3.8l-.5-.3c-2.6-1.5-6.8-1.4-9.7.3l-9.1 5.2c-1.7.8-2.8 2.5-3 4.4 0 1.6 1 3.1 2.4 3.8l.5.3c1.3.8 2.9 1.1 4.4 1.1m12.7-10.9c-.2.1-.3.3-.5.4l-9.1 5.2c-1.6.9-3.5 1-5.2.3l-.5-.3c.2-.1.3-.3.5-.4l9.1-5.2c1.6-.9 3.5-1 5.2-.3l.5.3z"/><path id="Path_408" class="st8" d="M324.4 269.9V266.7c0-.2.2-.4.4-.4h.1l15.3 4.8c.1 0 .2.2.2.3v3.5c-.1.6-.5 1.2-1 1.4-1.3.7-2.9.8-4.3.2l-9.9-5.7c-.4-.3-.7-.6-.8-.9"/><path id="Path_409" class="st2" d="M337 277.6c1 0 2-.2 2.8-.7.8-.4 1.4-1.2 1.4-2.1v-3.5c0-.5-.3-.9-.8-1.1l-15.3-4.8c-.6-.2-1.2.1-1.4.7 0 .1-.1.2-.1.3v3.4c.2.6.5 1.1 1.1 1.3l9.9 5.7c.8.7 1.6.9 2.4.8m2.7-5.9v3.2c0 .2-.2.5-.7.8-1.1.6-2.4.7-3.6.2l-9.9-5.7c-.2-.1-.3-.2-.4-.4v-2.5l14.6 4.4z"/><path id="Path_410" class="st4" d="m325.1 267 10 5.7c1.4.6 3 .6 4.3-.2 1.3-.7 1.4-1.9.3-2.5l-10-5.7c-1.4-.6-3-.6-4.3.2-1.2.7-1.4 1.8-.3 2.5"/><path id="Path_411" class="st2" d="M337 273.9c1 0 2-.2 2.8-.7.8-.4 1.4-1.2 1.4-2.1 0-.7-.5-1.4-1.1-1.7l-10-5.7c-1.6-.8-3.5-.7-5.1.2-.8.4-1.4 1.2-1.4 2.1 0 .7.5 1.4 1.1 1.7l10 5.7c.7.3 1.5.5 2.3.5m-9.1-9.3c.5 0 1 .1 1.5.3l9.9 5.7c.1.1.4.2.4.4s-.2.5-.7.8c-1.1.6-2.4.7-3.6.2l-9.9-5.7c-.1-.1-.4-.2-.4-.4s.2-.5.7-.8c.7-.3 1.4-.5 2.1-.5"/><path id="Path_412" class="st5" d="M419.4 298.7V295.5c0-.2.2-.4.4-.4h.1l15.3 4.8c.1 0 .2.2.2.3v3.5c-.1.6-.5 1.2-1 1.4-1.3.7-2.9.8-4.3.2l-9.9-5.7c-.5-.3-.7-.6-.8-.9"/><path id="Path_413" class="st2" d="M431.9 306.4c1 0 2-.2 2.8-.7.8-.4 1.4-1.2 1.4-2.1v-3.5c0-.5-.3-.9-.8-1.1l-15.3-4.8c-.6-.2-1.2.1-1.4.7v3.8c.2.6.5 1.1 1.1 1.3l10 5.7c.7.6 1.4.8 2.2.7m2.7-5.9v3.2c0 .2-.2.5-.7.8-1.1.6-2.4.7-3.6.2l-9.9-5.7c-.2-.1-.3-.2-.4-.4V296l14.6 4.5z"/><path id="Path_414" class="st4" d="m420.1 295.8 10 5.7c1.4.6 3 .6 4.3-.2 1.3-.7 1.4-1.9.3-2.5l-10-5.7c-1.4-.6-3-.6-4.3.2-1.3.7-1.4 1.8-.3 2.5"/><path id="Path_415" class="st2" d="M431.9 302.7c1 0 1.9-.2 2.8-.7.8-.4 1.4-1.2 1.4-2.1 0-.7-.5-1.4-1.1-1.7l-9.9-5.7c-1.6-.8-3.5-.7-5.1.2-.8.4-1.4 1.2-1.4 2.1 0 .7.5 1.4 1.1 1.7l9.9 5.7c.8.3 1.5.5 2.3.5m-9-9.3c.5 0 1 .1 1.5.3l10 5.7c.1.1.4.2.4.4s-.2.5-.7.8c-1.1.6-2.4.7-3.6.2l-9.9-5.7c-.1-.1-.4-.2-.4-.4s.2-.5.7-.8c.5-.3 1.2-.5 2-.5"/><path id="Path_416" class="st5" d="M411.3 303.3V300c0-.2.2-.4.4-.4h.1l15.3 4.8c.1 0 .2.2.2.3v3.5c-.1.6-.5 1.2-1 1.4-1.3.7-2.9.8-4.3.2l-9.9-5.7c-.4-.1-.6-.4-.8-.8"/><path id="Path_417" class="st2" d="M423.9 311.1c1 0 2-.2 2.8-.7.8-.4 1.4-1.2 1.4-2.1v-3.5c0-.5-.3-.9-.8-1.1L412 299c-.3-.1-.7 0-1 .2-.3.2-.5.5-.5.9v3.5c.2.6.5 1.1 1.1 1.3l9.9 5.7c.8.3 1.6.5 2.4.5m2.7-6v3.2c0 .2-.2.5-.7.8-1.1.6-2.4.7-3.6.2l-9.9-5.7c-.2-.1-.3-.2-.4-.4v-2.5l14.6 4.4z"/><path id="Path_418" class="st4" d="m412.1 300.4 10 5.7c1.4.6 3 .6 4.3-.2 1.3-.7 1.4-1.9.3-2.5l-9.9-5.7c-1.4-.6-3-.6-4.3.2-1.4.8-1.5 1.9-.4 2.5"/><path id="Path_419" class="st2" d="M423.9 307.3c1 0 2-.2 2.8-.7.8-.4 1.4-1.2 1.4-2.1 0-.7-.5-1.4-1.1-1.7l-10-5.7c-1.6-.8-3.5-.7-5.1.2-.8.4-1.4 1.2-1.4 2.1 0 .7.5 1.4 1.1 1.7l10 5.7c.7.4 1.5.6 2.3.5m-9.1-9.2c.5 0 1 .1 1.5.3l9.9 5.7c.1.1.4.2.4.4s-.2.5-.7.8c-1.1.6-2.4.7-3.6.2l-10-5.7c-.1-.1-.4-.2-.4-.4s.2-.5.7-.8c.8-.4 1.5-.5 2.2-.5"/><path id="Path_420" class="st5" d="M403.3 307.9V304.7c0-.2.2-.4.4-.4h.1l15.3 4.8c.1 0 .2.2.2.3v3.5c-.1.6-.5 1.2-1 1.4-1.3.7-2.9.8-4.3.2l-9.9-5.7c-.4-.2-.7-.5-.8-.9"/><path id="Path_421" class="st2" d="M415.9 315.7c1 0 2-.2 2.8-.7.8-.4 1.4-1.2 1.4-2.1v-3.5c0-.5-.3-.9-.8-1.1l-15.3-4.8c-.3-.1-.7 0-1 .2-.3.2-.4.5-.5.9v3.4c.2.6.5 1.1 1.1 1.3l10 5.7c.7.5 1.5.7 2.3.7m2.7-6v3.2c0 .2-.2.5-.7.8-1.1.6-2.4.7-3.6.2l-9.9-5.7c-.2-.1-.3-.2-.4-.4v-2.5l14.6 4.4z"/><path id="Path_422" class="st4" d="m404 305 10 5.7c1.4.6 3 .6 4.3-.2 1.3-.7 1.4-1.9.3-2.5l-9.9-5.7c-1.4-.6-3-.6-4.3.2-1.3.8-1.5 1.9-.4 2.5"/><path id="Path_423" class="st2" d="M415.9 312c1 0 2-.2 2.8-.7.8-.4 1.4-1.2 1.4-2.1 0-.7-.5-1.4-1.1-1.7l-9.9-5.7c-1.6-.8-3.5-.7-5.1.2-.8.4-1.4 1.2-1.4 2.1 0 .7.5 1.4 1.1 1.7l10 5.7c.6.3 1.4.5 2.2.5m-9.1-9.3c.5 0 1 .1 1.5.3l10 5.7c.1.1.4.2.4.4s-.2.5-.7.8c-1.1.6-2.4.7-3.6.2l-9.9-5.7c-.1-.1-.4-.2-.4-.4s.2-.5.7-.8c.6-.3 1.3-.5 2-.5"/><path id="Path_424" class="st0" d="M420.8 333c0-4.7 2.9-10.2 6.4-12.3l13.8-8c1.2-.9 2.8-1 4.1-.4l11 6.6v.1l-22 25.8h-.1l-10.9-6.6c-1.3-.7-2.3-2.5-2.3-5.2"/><path id="Path_425" class="st2" d="m434.3 345.8.5-.5 22.2-26-.1-.7-.3-.2-11-6.6c-1.6-.8-3.4-.6-4.9.4l-13.8 8c-3.7 2.2-6.8 8-6.8 12.9 0 2.9 1 5.1 2.8 6l11.4 6.7zm20.7-26.6-21 24.7-10.4-6.3c-1.3-.7-2-2.3-2-4.6 0-4.5 2.7-9.7 6-11.6l13.8-8c1-.7 2.3-.9 3.4-.4l10.2 6.2z"/><path id="Path_426" class="st27" d="m438.2 344.5 13.8-8c3.5-2 6.4-7.5 6.4-12.3s-2.9-6.9-6.4-4.9l-13.8 8c-3.5 2-6.4 7.5-6.4 12.3s2.9 6.9 6.4 4.9"/><path id="Path_427" class="st2" d="M435.7 346c1 0 2-.3 2.9-.9l13.8-8c3.7-2.2 6.8-8 6.8-12.9 0-2.8-.9-4.9-2.6-5.8-1.6-.8-3.5-.7-5 .3l-13.8 8c-3.7 2.2-6.8 8-6.8 12.9 0 2.8.9 4.9 2.6 5.8.7.4 1.4.6 2.1.6m2.2-2.2c-1 .7-2.3.9-3.4.3-1.2-.7-1.8-2.3-1.8-4.5 0-4.5 2.7-9.7 6-11.6l13.8-8c1-.7 2.3-.9 3.4-.3 1.2.7 1.8 2.3 1.8 4.5 0 4.5-2.7 9.7-6 11.6l-13.8 8z"/><path id="Path_428" class="st8" d="M443.1 334.5c.2-3.9 2.3-7.5 5.5-9.6 2.1-1.2 3.9-.9 4.8.5l4.9 5-5.6 9.7-6.6-1.8c-1.8.1-3-1.3-3-3.8"/><path id="Path_429" class="st2" d="m453.1 341 6.2-10.7-5.3-5.4c-1.1-1.7-3.4-2-5.8-.7-3.5 2.3-5.7 6.1-5.9 10.3 0 2.8 1.5 4.6 3.7 4.7l7.1 1.8zm4.3-10.5-5 8.7-6.2-1.6c-1.5 0-2.3-1.2-2.3-3.2.2-3.6 2.1-7 5.2-8.9 1.6-.9 3.1-.8 3.8.3l4.5 4.7z"/><path id="Path_430" class="st5" d="M451.5 337.5c0 2.5 1.8 3.6 4 2.3 2.3-1.5 3.8-4.1 4-6.9 0-2.5-1.8-3.6-4-2.3-2.4 1.6-3.9 4.1-4 6.9"/><path id="Path_431" class="st2" d="M453.7 341.1c.8 0 1.5-.2 2.2-.6 2.6-1.7 4.2-4.5 4.4-7.5.3-1.7-.9-3.3-2.6-3.6-.9-.1-1.8.1-2.5.7a9.75 9.75 0 0 0-4.4 7.5c-.1 1.3.5 2.5 1.5 3.2.4.2.9.3 1.4.3m3.5-10.2c.2 0 .5.1.7.2.6.5.9 1.2.8 1.9-.2 2.5-1.5 4.8-3.6 6.2-.7.7-1.7.7-2.4 0-.4-.4-.6-1.1-.4-1.6.2-2.5 1.5-4.8 3.6-6.2.3-.4.8-.5 1.3-.5"/><path id="Path_432" class="st8" d="M477.8 347.7c.7-1.3.2-2.9-1-3.6l-17.4-9.6c-1.3-.7-2.9-.2-3.6 1-.7 1.3-.2 2.9 1 3.6l17.4 9.6c1.3.7 2.8.2 3.6-1"/><path id="Path_433" class="st2" d="M475.5 349.8c1.2 0 2.4-.7 3-1.7.9-1.6.3-3.7-1.3-4.6l-17.4-9.6c-1.6-.9-3.7-.3-4.6 1.3-.9 1.6-.3 3.7 1.3 4.6l17.4 9.6c.4.2 1 .4 1.6.4M458 334.9c.3 0 .6.1.9.2l17.4 9.6c.9.5 1.2 1.6.7 2.5-.5.9-1.6 1.2-2.5.7l-17.4-9.6c-.4-.2-.7-.6-.9-1.1-.1-.5-.1-1 .2-1.4.3-.5 1-.9 1.6-.9"/><path id="Path_434" class="st2" d="m471.4 347.7 1.5-.3-1.3-6.7-1.5.3 1.3 6.7z"/><path id="Path_435" class="st2" d="m467.7 345.8 1.5-.3-1.3-6.7-1.5.3 1.3 6.7z"/><path id="Path_436" class="st2" d="m464.1 343.4 1.5-.3-1.3-6.7-1.5.3 1.3 6.7z"/><path id="Path_437" class="st2" d="m460.5 341.5 1.5-.3-1.3-6.7-1.5.3 1.3 6.7z"/><path id="Rectangle_131" class="st2" d="M417 320.7h1.5v25H417z"/><path id="Rectangle_132" class="st2" d="M412.7 319.7h1.5v25h-1.5z"/><path id="Rectangle_133" class="st2" d="M348.5 297.8h1.5v25h-1.5z"/><path id="Rectangle_134" class="st2" d="M291.4 340h1.5v16.2h-1.5z"/><path id="Rectangle_135" class="st2" d="M258.6 325h1.5v16.2h-1.5z"/><path id="Rectangle_136" class="st2" d="M283.8 339.4h1.5v16.2h-1.5z"/><path id="Rectangle_137" class="st2" d="M372.5 313.3h1.5v11.1h-1.5z"/><path id="Rectangle_138" class="st2" d="M367.6 312.3h1.5v11.1h-1.5z"/><path id="Path_438" class="st2" d="m431.4 340.3.8-1.3-11-6.6-.8 1.3 11 6.6z"/><path id="Path_439" class="st2" d="m435 330.1.8-1.3-11-6.6-.8 1.3 11 6.6z"/><path id="Rectangle_139" class="st2" d="M337.3 306.2h1.5v16.3h-1.5z"/><path id="Rectangle_140" transform="rotate(-61.523 303.58 251.517)" class="st2" d="M302.8 248.1h1.5v6.8h-1.5z"/></svg>