<svg xmlns="http://www.w3.org/2000/svg" viewBox="0 0 262.9 54" style="enable-background:new 0 0 262.9 54" xml:space="preserve"><path style="fill:#ec6a2b" d="M14.9 24h17v4h-17z"/><path d="M189.5 23.6c-.3-.4-.7-.8-1.1-1.2-.6-.5-1.2-.8-1.9-1-.8-.3-1.6-.4-2.4-.4-1.5 0-2.9.4-4.2 1.2-1.2.8-2.2 2-2.9 3.3-.7 1.5-1.1 3.2-1.1 4.9 0 1.7.3 3.3 1.1 4.8.6 1.3 1.6 2.5 2.8 3.3 1.2.8 2.6 1.2 4.1 1.2.8 0 1.6-.1 2.3-.4.7-.2 1.4-.6 2-1 .4-.3.8-.7 1.2-1.1v2.2h5.5v-18h-5.4v2.2zm-1.8 11c-.7.4-1.4.6-2.2.6-.7 0-1.5-.2-2.1-.6-.6-.4-1.1-1-1.4-1.6-.4-.8-.5-1.7-.5-2.5 0-.9.2-1.7.5-2.5.3-.7.8-1.3 1.4-1.7.6-.4 1.4-.6 2.1-.6.8 0 1.5.2 2.2.6.6.4 1.1 1 1.4 1.7.4.8.5 1.7.5 2.5 0 .9-.2 1.7-.5 2.5-.3.6-.8 1.2-1.4 1.6zm25.9-13.2h5.4v18.1h-5.4V21.4zM86.7 30.1c1.2-.7 2.2-1.6 2.9-2.8.7-1.2 1.1-2.6 1.1-4s-.3-2.7-1.1-3.9c-.7-1.1-1.7-2.1-2.9-2.7-1.3-.7-2.7-1-4.1-1H71.9v23.8h5.5v-8.4h3l4.7 8.4h6.6l-5.3-9.2c0-.1.2-.2.3-.2zm-9.3-9.6h4.2c.6 0 1.3.1 1.9.4.5.2.9.6 1.2 1.1.3.5.4 1 .4 1.6 0 .6-.1 1.1-.4 1.6-.2.5-.6.8-1 1.1-.5.3-1 .4-1.5.4h-4.7v-6.2zm160.2 1.7c-1.5-.8-3.3-1.3-5-1.2-1.7 0-3.5.4-5 1.2-1.4.8-2.6 1.9-3.5 3.3-.9 1.5-1.3 3.1-1.3 4.8 0 1.7.4 3.4 1.3 4.8.8 1.4 2 2.5 3.5 3.3 1.5.8 3.3 1.3 5 1.2 1.7 0 3.5-.4 5-1.2 1.4-.8 2.6-1.9 3.5-3.3.9-1.5 1.3-3.1 1.3-4.8 0-1.7-.4-3.4-1.3-4.8-.9-1.3-2-2.5-3.5-3.3zm-1.3 10.6c-.3.7-.9 1.3-1.5 1.7-.6.4-1.4.6-2.2.6-.8 0-1.5-.2-2.2-.6-.6-.4-1.2-1-1.5-1.7-.4-.7-.5-1.6-.5-2.4 0-.8.1-1.7.5-2.4.3-.7.9-1.3 1.5-1.7.7-.4 1.4-.6 2.2-.6.8 0 1.5.2 2.2.6.6.4 1.2 1 1.5 1.7.4.8.5 1.6.5 2.4 0 .8-.1 1.7-.5 2.4zm26.6-4.4v11.1h-5.5V28.8c0-.6-.1-1.2-.3-1.8-.2-.5-.5-.8-.9-1.1-.5-.3-1-.4-1.5-.3-.5 0-.9.1-1.3.2s-.8.4-1.1.6c-.3.3-.5.6-.7 1-.2.4-.3.8-.3 1.2v10.8h-5.4v-18h5.2l.1 2.2c.1-.1.2-.3.3-.4.7-.7 1.5-1.2 2.3-1.6.9-.4 1.9-.6 2.9-.6 1.2 0 2.4.2 3.4.8 1 .6 1.7 1.5 2.1 2.5.5 1.3.8 2.7.7 4.1zm-44.2-15.5c.6.5.9 1.3.9 2.1s-.3 1.5-.9 2c-.7.5-1.5.8-2.4.8-.9.1-1.7-.2-2.4-.7-.6-.5-.9-1.3-.9-2.1s.3-1.5.9-2c.7-.5 1.5-.8 2.4-.8.8 0 1.7.2 2.4.7zm-69.2 9.3c-1.5-.8-3.3-1.3-5-1.2-1.7 0-3.5.4-5 1.2-1.4.8-2.6 1.9-3.5 3.3-.9 1.5-1.3 3.1-1.3 4.8 0 1.7.4 3.4 1.3 4.8.8 1.4 2 2.5 3.5 3.3 1.5.8 3.3 1.3 5 1.2 1.7 0 3.5-.4 5-1.2 1.4-.8 2.6-1.9 3.5-3.3.9-1.5 1.3-3.1 1.3-4.8 0-1.7-.4-3.4-1.3-4.8-.9-1.3-2.1-2.5-3.5-3.3zm-1.3 10.6c-.3.7-.9 1.3-1.5 1.7-.6.4-1.4.6-2.2.6-.8 0-1.5-.2-2.2-.6-.6-.4-1.2-1-1.5-1.7-.4-.7-.5-1.6-.5-2.4 0-.8.1-1.7.5-2.4.3-.7.9-1.3 1.5-1.7.7-.4 1.4-.6 2.2-.6.8 0 1.5.2 2.2.6.6.4 1.2 1 1.5 1.7.4.8.5 1.6.5 2.4 0 .8-.2 1.7-.5 2.4zm58.5-11.4h3.5v4.8h-3.5v13.3h-5.4V26.2H198v-4.8h3.2v-4.6h5.4v4.6zm-98.1 2.2c-.8-.8-1.7-1.5-2.7-1.9-1.1-.5-2.3-.7-3.5-.7-1.3 0-2.5.2-3.7.7-1.1.4-2.1 1.1-2.9 2-.8.9-1.5 1.9-1.9 3-.5 1.2-.7 2.5-.7 3.8 0 1.7.4 3.3 1.2 4.8.8 1.4 2 2.5 3.4 3.3 1.6.8 3.4 1.3 5.2 1.2.8 0 1.7-.1 2.5-.3.8-.2 1.7-.5 2.4-.9.8-.4 1.6-.9 2.2-1.5l-2.5-3.6c-.6.5-1.3.9-2 1.2-.7.2-1.4.4-2.1.3-1 0-2-.2-2.9-.6-.8-.4-1.4-1-1.8-1.7-.2-.4-.3-.7-.4-1.1h12.4v-1.5c.1-1.2-.1-2.5-.5-3.6-.3-1.1-.9-2.1-1.7-2.9zm-9.8 4c.3-.6.8-1.2 1.4-1.5.7-.4 1.5-.6 2.3-.5.6 0 1.2.1 1.7.4.5.2.9.6 1.2 1 .3.4.5 1 .5 1.5h-7.4l.3-.9zm70.3-6.2h5.9l-7.9 18.1h-4.3l-7.5-18.1h6l3.9 11.6 3.9-11.6zm-38.4 2.9c.5 1.3.8 2.7.7 4v11.1H126V28.8c0-.6-.1-1.2-.3-1.8-.2-.5-.5-.8-.9-1.1-.5-.3-1-.4-1.5-.3-.5 0-.9.1-1.3.2s-.8.4-1.1.6c-.3.3-.5.6-.7 1-.2.4-.3.8-.3 1.2v10.8h-5.4v-18h5.2l.1 2.2c.1-.1.2-.3.3-.4.7-.7 1.5-1.2 2.3-1.6.9-.4 1.9-.6 2.9-.6 1.2 0 2.4.2 3.4.8.9.6 1.6 1.5 2 2.5zM45 20c-.9-.8-1.4-2-1.3-3.3.1-4.1 0-8.2 0-12.2v-.2c0-.9-.8-1.7-1.7-1.7h-9.1c-.9 0-1.6.8-1.6 1.7v1.4c-.2-.2-.3-.3-.5-.4-1.4-1.4-2.7-2.8-4.1-4.2-.4-.3-.8-.7-1.2-1h-.8l-1.2.9L5.6 19.5C4 21.2 2.3 22.9.7 24.6c-.6.5-.8 1.3-.4 2 .3.7 1 1.1 1.7 1H5.6V48.2c0 1.4.6 2 2 2H18.5v2.2c0 .9.7 1.6 1.6 1.6 1.4-.1 2.8 0 4.3 0h.4c.9-.1 1.5-.9 1.4-1.8v-2h16.6c1.5 0 2.1-.6 2.1-2.1V27.5h3.6c.4 0 .9-.2 1.2-.4.1-.1.2-.2.3-.2.6-.7.5-1.7-.2-2.3C48 23 46.6 21.4 45 20zM22.6 50.6h-.9v-7.5h.9v7.5zm20.5-26.4h-.4c-.9.1-1.6 1-1.5 1.9v20.6H26v-4.8c0-1.5-.5-2-2-2.2-.1-.3-.2-.6-.1-.9.1-1.1 1.1-1.9 2.2-1.8h7.6c3 0 5.6-2 6.3-4.9.8-3.4-1.3-6.9-4.7-7.7-.2 0-.3-.1-.5-.1v-1.5c0-.9-.8-1.6-1.7-1.6H13.4c-.9.1-1.6.8-1.5 1.8v6.3c0 .9.8 1.6 1.7 1.6h19.6c.9 0 1.6-.8 1.6-1.7v-1.1c1.2.4 2.1 1.5 2 2.8 0 1.3-.9 2.5-2.2 2.9-.3.1-.7.1-1 .1h-8.1c-2.9.2-5.1 2.6-5 5.5v.6h-.7c-.9.1-1.6.9-1.6 1.8V47H8.8V26.5c0-1.4-.6-2.1-2.1-2.1h-1L25.2 4l.3.6c2 2.1 4.1 4.2 6.1 6.3l.3.3c.7.5 1.8.4 2.3-.4.2-.4.3-.8.4-1.2V5.9h5.7v13c0 .6.2 1.3.7 1.7 1 1 2 2 2.9 3l.5.5c-.5.1-.9.1-1.3.1zm-11.8.3v2.8H15.2v-2.8h16.1z" style="fill:#1e262e"/></svg>